<svg xmlns="http://www.w3.org/2000/svg" viewBox="0 0 500 500"><g id="freepik--background-complete--inject-21"><path d="M399.73,64.81c.49-3.55-4.53-6.48-8.3-6.78-1.8-.14-3.66.13-5.37-.46-3.68-1.29-5.16-6.06-8.76-7.57-2.69-1.14-5.79-.13-8.4,1.18s-5.18,3-8.1,3.16c-2.54.16-5.29-.78-7.51.46-1.65.92-2.52,2.83-4,4A9.61,9.61,0,0,1,344,60.18a14.89,14.89,0,0,0-5.45.89c-1.69.77-3.08,2.55-2.73,4.37Z" style="fill:#fafafa"></path><path d="M234.25,135.6c.71-5.2-6.62-9.47-12.14-9.92-2.62-.21-5.35.19-7.84-.68-5.4-1.88-7.55-8.85-12.82-11.07-3.94-1.66-8.47-.18-12.28,1.74s-7.59,4.34-11.85,4.61c-3.71.24-7.74-1.14-11,.67-2.42,1.35-3.68,4.14-5.91,5.78s-5,2-7.73,2.1-5.5.17-8,1.3-4.5,3.73-4,6.39Z" style="fill:#ebebeb"></path><path d="M252.88,62.59c.63-4.52-5.75-8.24-10.55-8.63-2.29-.18-4.66.17-6.83-.59-4.69-1.63-6.57-7.69-11.15-9.63-3.42-1.44-7.36-.15-10.68,1.52s-6.6,3.77-10.31,4c-3.22.2-6.73-1-9.55.58-2.1,1.18-3.2,3.6-5.14,5S184.3,56.57,182,56.7s-4.79.15-6.93,1.13-3.92,3.25-3.47,5.56Z" style="fill:#f5f5f5"></path><path d="M452.12,98.5c.41-2.94-3.75-5.37-6.88-5.62-1.49-.12-3,.11-4.45-.38-3.06-1.07-4.28-5-7.27-6.28-2.23-.94-4.8-.11-7,1s-4.31,2.46-6.72,2.62c-2.11.13-4.39-.65-6.23.38-1.37.76-2.09,2.34-3.35,3.28a8,8,0,0,1-4.38,1.18,12.47,12.47,0,0,0-4.52.74A3.57,3.57,0,0,0,399.1,99Z" style="fill:#f5f5f5"></path><polygon points="179.13 278.71 193.42 218.84 215.82 274.47 209.26 272.53 225.48 305.75 216.21 302.66 227.41 315.35 177.2 315.35 181.45 304.21 177.2 310 186.49 274.96 179.13 278.71" style="fill:#f5f5f5"></polygon><polygon points="33.59 251.97 53.28 169.49 84.14 246.12 75.09 243.46 97.44 289.22 84.67 284.96 100.11 314.76 30.93 314.76 36.78 287.09 30.93 295.07 43.72 246.8 33.59 251.97" style="fill:#f5f5f5"></polygon><polygon points="126.6 251.87 146.29 169.39 177.15 246.01 168.11 243.35 190.46 289.12 177.69 284.86 193.12 314.66 123.94 314.66 129.79 286.99 123.94 294.97 136.74 246.69 126.6 251.87" style="fill:#f5f5f5"></polygon><polygon points="207.5 290.46 215.36 257.55 227.67 288.13 224.06 287.06 232.98 305.32 227.88 303.63 234.04 315.51 206.44 315.51 208.77 304.47 206.44 307.66 211.54 288.4 207.5 290.46" style="fill:#e0e0e0"></polygon><polygon points="411.3 278.13 425.59 218.26 447.99 273.88 441.43 271.94 457.65 305.16 448.38 302.07 459.58 314.76 409.37 314.76 413.62 303.62 409.37 309.41 418.66 274.37 411.3 278.13" style="fill:#f5f5f5"></polygon><polygon points="439.9 289.71 447.76 256.8 460.07 287.37 456.47 286.31 465.38 304.57 460.29 302.87 466.44 314.76 438.84 314.76 441.18 303.72 438.84 306.91 443.95 287.65 439.9 289.71" style="fill:#e0e0e0"></polygon><polygon points="91 265.85 106.34 201.6 130.38 261.29 123.34 259.22 140.75 294.87 130.8 291.55 142.82 314.76 88.93 314.76 93.49 293.21 88.93 299.43 98.9 261.82 91 265.85" style="fill:#e0e0e0"></polygon><path d="M484,314.76c0,.15-104,.26-232.21.26s-232.23-.11-232.23-.26,104-.26,232.23-.26S484,314.62,484,314.76Z" style="fill:#e0e0e0"></path><circle cx="94.83" cy="83.61" r="20.89" transform="translate(-2.81 163.93) rotate(-80.84)" style="fill:#e0e0e0"></circle><path d="M91.86,130.32a85,85,0,0,1-.22-8.61,85.17,85.17,0,0,1,.22-8.62,85.17,85.17,0,0,1,.22,8.62A85,85,0,0,1,91.86,130.32Z" style="fill:#e0e0e0"></path><path d="M79.82,108.23c.11.06-1.86,3.66-4.39,8s-4.66,7.88-4.77,7.82,1.86-3.66,4.39-8S79.72,108.17,79.82,108.23Z" style="fill:#e0e0e0"></path><path d="M67.47,100.54a46.65,46.65,0,0,1-4.88,4.16,46.66,46.66,0,0,1-5.15,3.81,48.26,48.26,0,0,1,4.88-4.16A47.14,47.14,0,0,1,67.47,100.54Z" style="fill:#e0e0e0"></path><path d="M112.7,121.83a11.34,11.34,0,0,1-.55-2.12c-.31-1.31-.73-3.12-1.26-5.11s-1.08-3.77-1.48-5.06a12,12,0,0,1-.59-2.11,9.26,9.26,0,0,1,.88,2c.48,1.27,1.07,3,1.61,5s.92,3.83,1.14,5.16A10.85,10.85,0,0,1,112.7,121.83Z" style="fill:#e0e0e0"></path><path d="M133.88,106.8a74.75,74.75,0,0,1-6.17-5.11,74.57,74.57,0,0,1-5.89-5.43,72.42,72.42,0,0,1,6.18,5.1A72.2,72.2,0,0,1,133.88,106.8Z" style="fill:#e0e0e0"></path><path d="M142,86.14a18.86,18.86,0,0,1-2.52-.36c-1.55-.26-3.69-.59-6.06-.87s-4.54-.43-6.11-.53a16.14,16.14,0,0,1-2.53-.22,13.6,13.6,0,0,1,2.55-.09,61,61,0,0,1,6.14.41c2.38.27,4.53.66,6.07,1A12.76,12.76,0,0,1,142,86.14Z" style="fill:#e0e0e0"></path><path d="M142,65.82c0,.12-4.49,1.32-10.1,2.69s-10.17,2.38-10.2,2.26,4.49-1.32,10.1-2.69S142,65.71,142,65.82Z" style="fill:#e0e0e0"></path><path d="M118.42,42.15c.1.07-2.06,3.52-4.83,7.71s-5.1,7.53-5.2,7.47,2.06-3.52,4.83-7.71S118.32,42.09,118.42,42.15Z" style="fill:#e0e0e0"></path><path d="M95,37.21a22,22,0,0,1,0,2.87C95,41.85,95,44.29,95,47s0,5.15.07,6.91a21.13,21.13,0,0,1,0,2.87,16.84,16.84,0,0,1-.29-2.85c-.11-1.77-.2-4.22-.2-6.92s.08-5.16.19-6.92A16.38,16.38,0,0,1,95,37.21Z" style="fill:#e0e0e0"></path><path d="M77.26,59.3c-.11.06-2.31-3.35-4.92-7.62s-4.64-7.79-4.54-7.85,2.31,3.35,4.92,7.62S77.36,59.24,77.26,59.3Z" style="fill:#e0e0e0"></path><path d="M66.66,68.31A11.12,11.12,0,0,1,64.44,68c-1.36-.28-3.22-.74-5.25-1.33s-3.85-1.23-5.14-1.73A11,11,0,0,1,52,64a12.93,12.93,0,0,1,2.16.62c1.32.42,3.14,1,5.16,1.59s3.87,1.1,5.2,1.46A12.19,12.19,0,0,1,66.66,68.31Z" style="fill:#e0e0e0"></path><path d="M62,84.35a49.72,49.72,0,0,1-6.66.87,52.39,52.39,0,0,1-6.71.42,50.8,50.8,0,0,1,6.66-.86A51.43,51.43,0,0,1,62,84.35Z" style="fill:#e0e0e0"></path><path d="M404,373.09l14,99.8,3.65.12C419.31,439.11,416.84,404.54,404,373.09Z" style="fill:#e0e0e0"></path><path d="M442.9,368.42c-9.79,10.72-13.72,25.47-16.2,39.78-3.52,20.29-3.84,44.25-2.79,64.81l5.12.12A281.63,281.63,0,0,1,442.9,368.42Z" style="fill:#e0e0e0"></path><path d="M406.55,432.14c-1.12-4.95-2.41-10-5.23-14.19-3.81-5.69-10-9.29-16.27-12.09s-12.83-5-18.48-8.92c6.3,10.33,20.61,13.08,27.89,22.75,3.62,4.8,5.13,10.84,6.55,16.69,3.09,12.75,5,23.79,8.09,36.55h4.15A325.33,325.33,0,0,0,406.55,432.14Z" style="fill:#e0e0e0"></path><path d="M432.76,473s3.51-39.64,6.12-46.91,27.2-27.39,27-26.44-18.46,22.95-21.06,27.44-7.1,45.91-7.1,45.91Z" style="fill:#e0e0e0"></path><path d="M60,373.09l14,99.8,3.65.12C75.36,439.11,72.88,404.54,60,373.09Z" style="fill:#e0e0e0"></path><path d="M98.94,368.42c-9.79,10.72-13.72,25.47-16.2,39.78C79.22,428.49,78.9,452.45,80,473l5.11.12A281.63,281.63,0,0,1,98.94,368.42Z" style="fill:#e0e0e0"></path><path d="M62.6,432.14c-1.13-4.95-2.42-10-5.24-14.19-3.81-5.69-10-9.29-16.27-12.09s-12.83-5-18.48-8.92c6.3,10.33,20.61,13.08,27.89,22.75,3.62,4.8,5.13,10.84,6.55,16.69,3.09,12.75,5,23.79,8.1,36.55h4.14A327.15,327.15,0,0,0,62.6,432.14Z" style="fill:#e0e0e0"></path><path d="M88.8,473s3.52-39.64,6.12-46.91,27.2-27.39,27-26.44-18.46,22.95-21.06,27.44S93.73,473,93.73,473Z" style="fill:#e0e0e0"></path><path d="M350.86,107.47c.49-3.55-4.53-6.47-8.3-6.78-1.8-.14-3.66.13-5.37-.46-3.68-1.29-5.16-6-8.76-7.57-2.69-1.14-5.79-.13-8.4,1.19s-5.18,3-8.1,3.15c-2.54.16-5.29-.78-7.51.46-1.65.92-2.52,2.83-4,4a9.61,9.61,0,0,1-5.28,1.43,14.9,14.9,0,0,0-5.45.9c-1.69.77-3.08,2.55-2.73,4.37Z" style="fill:#fafafa"></path></g><g id="freepik--Plant--inject-21"><path d="M219.7,433.21a7.53,7.53,0,0,1,3.88,4.41,13.34,13.34,0,0,1,.52,6c-.44,3.87-2.64,7.77-5,10.86-3.25-2.84-4-7.8-4.23-10.34-.35-4,1.46-11.48,4.84-10.89" style="fill:#E8505B"></path><path d="M222.88,460.83a6.39,6.39,0,0,1,2.07-6.08,8.46,8.46,0,0,1,6.26-2A3.55,3.55,0,0,1,234,454a2.72,2.72,0,0,1,0,2.77,5.6,5.6,0,0,1-2.05,2c-2.82,1.77-5.88,3-9.07,2" style="fill:#E8505B"></path><path d="M218.7,472.69a4.88,4.88,0,0,1,.12-.79c.1-.56.23-1.28.39-2.15a22.35,22.35,0,0,1,2.22-6.87,13.76,13.76,0,0,1,4.92-5.23,9.71,9.71,0,0,1,2-.89c.25-.08.45-.11.58-.15l.21,0a14.3,14.3,0,0,0-2.69,1.23,14.13,14.13,0,0,0-4.78,5.2,24.17,24.17,0,0,0-2.27,6.77c-.2.9-.36,1.63-.48,2.13A4.42,4.42,0,0,1,218.7,472.69Z" style="fill:#263238"></path><path d="M218.82,439a1.22,1.22,0,0,1,0,.35c0,.26,0,.59.06,1,.05.86.1,2.12.15,3.67.1,3.1.18,7.38.16,12.12s-.14,9-.26,12.11c-.07,1.55-.13,2.81-.18,3.67,0,.41,0,.74-.07,1a1.73,1.73,0,0,1,0,.34,1.3,1.3,0,0,1,0-.34c0-.26,0-.59,0-1,0-.91,0-2.15.09-3.67.07-3.1.16-7.38.18-12.12s0-9-.08-12.11c0-1.52,0-2.77-.06-3.67v-1A1.88,1.88,0,0,1,218.82,439Z" style="fill:#263238"></path><path d="M217.24,463.18a15,15,0,0,0-8.17-11c-1.09-.52-2.51-.86-3.4-.05s-.7,2.27-.26,3.39a12.79,12.79,0,0,0,11.76,7.94" style="fill:#E8505B"></path><path d="M209.6,455.89a3.67,3.67,0,0,1,.69.3c.22.11.49.24.78.42a11.06,11.06,0,0,1,1,.62,14.21,14.21,0,0,1,1.14.86c.4.32.79.7,1.21,1.1a16.57,16.57,0,0,1,2.3,3,15.84,15.84,0,0,1,1.51,3.42,14.08,14.08,0,0,1,.39,1.59,11.38,11.38,0,0,1,.19,1.42c.06.43,0,.82.06,1.17a7.69,7.69,0,0,1,0,.88,6.53,6.53,0,0,1-.08.75c-.07,0,0-1.07-.15-2.78a13.23,13.23,0,0,0-.22-1.39,15.07,15.07,0,0,0-.41-1.56,17.21,17.21,0,0,0-1.5-3.36,17.71,17.71,0,0,0-2.25-2.92,14.83,14.83,0,0,0-1.18-1.1,13,13,0,0,0-1.1-.87C210.55,456.39,209.57,456,209.6,455.89Z" style="fill:#263238"></path></g><g id="freepik--Characters--inject-21"><path d="M315.52,273.53l-56,2s-38.66,41.49-44.1,48.07-3.63,12-3.63,12c2,11.57,38.64,86.7,38.64,86.7l23.08-10.45L248.5,336.58s60.88-48.06,62.5-48.1Z" style="fill:#263238"></path><path d="M246.22,330.55a25.53,25.53,0,0,1,2.65,6.81,12.75,12.75,0,0,1-1.57-3.31A13.26,13.26,0,0,1,246.22,330.55Z" style="fill:#455a64"></path><path d="M175.36,242.84s-1.61-1.26-3.3.65,0,2.47,0,2.47l13.1.78,5.64-2.92s4.15.34,5-.44,6.14-8.31,6.14-8.31l-2.71-6.66-17.79,3Z" style="fill:#ffbe9d"></path><path d="M170,232.81h21.57c1.21,0,2.2,2.14,2.2,4.77s-1,4.76-2.2,4.76l-21.65-1.72C165.63,235.67,170,232.81,170,232.81Z" style="fill:#263238"></path><polygon points="277.95 320.77 285.09 296.89 278.83 296.89 272.69 319.33 277.95 320.77" style="fill:#e0e0e0"></polygon><polygon points="231.05 407.58 248.25 430.23 252.28 428.32 234.22 404.69 231.05 407.58" style="fill:#263238"></polygon><rect x="240.26" y="427.61" width="21.91" height="6.18" transform="translate(-7.81 4.65) rotate(-1.04)" style="fill:#e0e0e0"></rect><path d="M147.11,238.08c2.73-5.25,22.28-3.65,22.28-3.65v4.84s-1-.14-2.45-.31a15.37,15.37,0,0,0-.25,4.22,5.88,5.88,0,0,0,2.25,4.2c1.58,1.1,6.78,1.31,8.69,1.53,2.67.32,4.34.34,4.34,2.52-5.06,1.23-10.35,0-15.4-1.27a10.78,10.78,0,0,1-4.89-2.12,7.22,7.22,0,0,1-2-5.17,17.59,17.59,0,0,1,.6-4.44c-4.54-.17-9,.2-9.77,2-2.17,5.37,24.45,18.81,24.45,18.81l-2.07,4.9C167.1,261.54,141.78,248.36,147.11,238.08Z" style="fill:#e0e0e0"></path><polygon points="153.19 291.08 163.35 294.01 161.42 299.86 151.95 297.37 153.19 291.08" style="fill:#455a64"></polygon><polygon points="147.42 307.63 157.58 310.57 155.65 316.41 146.18 313.93 147.42 307.63" style="fill:#455a64"></polygon><path d="M112.9,258.47a4.14,4.14,0,0,1,.25,1l.48,2.86c.38,2.42.88,5.76,1.4,9.46s1,7,1.27,9.47l.33,2.88a5.09,5.09,0,0,1,.05,1.07,4.7,4.7,0,0,1-.24-1c-.13-.78-.29-1.74-.48-2.86-.39-2.42-.89-5.77-1.41-9.47s-1-7.05-1.27-9.47c-.12-1.14-.23-2.1-.32-2.88A4.71,4.71,0,0,1,112.9,258.47Z" style="fill:#263238"></path><path d="M118.24,251.87a6.28,6.28,0,1,1-7.74-4.35A6.28,6.28,0,0,1,118.24,251.87Z" style="fill:#E8505B"></path><g style="opacity:0.30000000000000004"><path d="M113.15,259.79a11.6,11.6,0,0,1-.32-1.79,10.35,10.35,0,0,0-1.45-4,5.86,5.86,0,0,0-3.34-2.43,10.71,10.71,0,0,0-1.77-.17,2.79,2.79,0,0,1,1.84-.17,5.72,5.72,0,0,1,3.68,2.49,9.25,9.25,0,0,1,1.38,4.23A4.91,4.91,0,0,1,113.15,259.79Z"></path></g><g style="opacity:0.30000000000000004"><path d="M117.21,250.08a10.1,10.1,0,0,0-3.17,1.8,9.75,9.75,0,0,0-1.91,3.11c-.06,0-.08-.45.12-1.12a5.53,5.53,0,0,1,1.45-2.34,5.44,5.44,0,0,1,2.38-1.36C116.77,250,117.21,250,117.21,250.08Z"></path></g><g style="opacity:0.30000000000000004"><path d="M114.55,251.11c-.07,0-.24-.37-.73-.81a2.82,2.82,0,0,0-4.34.48c-.38.54-.46,1-.54.95s-.1-.47.24-1.13a3,3,0,0,1,4.89-.54C114.55,250.62,114.61,251.1,114.55,251.11Z"></path></g><g style="opacity:0.30000000000000004"><path d="M113.09,252.62c-.14,0-.45-.77-1.14-1.54s-1.43-1.2-1.37-1.33,1,.13,1.74,1S113.21,252.61,113.09,252.62Z"></path></g><g style="opacity:0.30000000000000004"><path d="M112.13,250.91c.06.13-.41.41-.74.89s-.55,1-.69,1-.12-.61.29-1.24S112.1,250.79,112.13,250.91Z"></path></g><path d="M121.63,239.09a9,9,0,0,1,.12,1.65c0,1.14.09,2.66.15,4.51.1,3.8.21,9.06.3,14.86s.14,11.06.15,14.87c0,1.84,0,3.36,0,4.51a9.36,9.36,0,0,1-.07,1.65,12.35,12.35,0,0,1-.12-1.65c0-1.14-.08-2.66-.14-4.51-.11-3.8-.21-9.06-.3-14.87s-.14-11.06-.16-14.87c0-1.84,0-3.36,0-4.5A10.66,10.66,0,0,1,121.63,239.09Z" style="fill:#263238"></path><path d="M129,235.91a7.34,7.34,0,1,1-7.89-6.73A7.34,7.34,0,0,1,129,235.91Z" style="fill:#E8505B"></path><g style="opacity:0.30000000000000004"><path d="M121.42,243.85a17.8,17.8,0,0,1,.07-2.13,12.16,12.16,0,0,0-.75-4.93,6.83,6.83,0,0,0-3.32-3.55,10.63,10.63,0,0,0-2-.56s.2-.07.58-.07a4.32,4.32,0,0,1,1.56.31,6.77,6.77,0,0,1,3.63,3.68,10.9,10.9,0,0,1,.64,5.15A6.5,6.5,0,0,1,121.42,243.85Z"></path></g><g style="opacity:0.30000000000000004"><path d="M128.26,233.63a10.57,10.57,0,0,0-4.07,1.31,10.72,10.72,0,0,0-2.87,3.18,2.5,2.5,0,0,1,.43-1.25,6.56,6.56,0,0,1,5.2-3.37C127.77,233.44,128.27,233.57,128.26,233.63Z"></path></g><g style="opacity:0.30000000000000004"><path d="M125,234.21c-.08,0-.17-.48-.63-1.11a3.3,3.3,0,0,0-5.14-.43c-.55.54-.72,1-.8,1s0-.56.55-1.22a3.43,3.43,0,0,1,5.68.47C125.07,233.66,125,234.21,125,234.21Z"></path></g><g style="opacity:0.30000000000000004"><path d="M123,235.62c-.14,0-.3-1-.92-2.05s-1.39-1.7-1.31-1.81,1.07.4,1.74,1.57A2.89,2.89,0,0,1,123,235.62Z"></path></g><g style="opacity:0.30000000000000004"><path d="M122.24,233.43c0,.15-.57.34-1.07.83s-.85,1.06-1,1,0-.71.64-1.33S122.24,233.31,122.24,233.43Z"></path></g><path d="M99.46,256.86c.09,0,1.5,4.13,3.16,9.3s2.92,9.37,2.83,9.4-1.51-4.14-3.16-9.3S99.37,256.89,99.46,256.86Z" style="fill:#e0e0e0"></path><path d="M102.75,267.13a40.9,40.9,0,0,1-3.31-2.47A24.58,24.58,0,0,1,96.29,262a26.84,26.84,0,0,1,3.36,2.39A18,18,0,0,1,102.75,267.13Z" style="fill:#e0e0e0"></path><path d="M95.49,261.57c-.28.25-.18.82.13,1.14a.94.94,0,0,0,1.28-.22.84.84,0,0,0-.31-1.14.93.93,0,0,0-1.17.31" style="fill:#e0e0e0"></path><path d="M102.75,254.83a11.58,11.58,0,0,1-.82,3.24c-.61,1.74-1,3.17-1.07,3.15a10,10,0,0,1,.75-3.26A30.49,30.49,0,0,1,102.75,254.83Z" style="fill:#e0e0e0"></path><path d="M102.59,253.55c-.34.24-.36.39-.49.79a.79.79,0,0,0,.47,1c.38.08.74-.26.9-.61a1.09,1.09,0,0,0,0-1,.6.6,0,0,0-.91-.1" style="fill:#e0e0e0"></path><path d="M96.7,265.85a3.61,3.61,0,0,1,1.36-.76,3.73,3.73,0,0,1,1.49-.44,7,7,0,0,1-2.85,1.2Z" style="fill:#e0e0e0"></path><path d="M95.47,265.28c-.23.12-.33.69-.32.93a.74.74,0,0,0,.37.58.93.93,0,0,0,1.19-.18.92.92,0,0,0-1.24-1.33" style="fill:#e0e0e0"></path><path d="M97.94,255.9a1.27,1.27,0,0,0,.64,1.36,1.25,1.25,0,0,0,1.47-.29.86.86,0,0,0,.24-.69,1.45,1.45,0,0,0-1.1-1,1.27,1.27,0,0,0-1.25.64" style="fill:#e0e0e0"></path><path d="M143,276a20.28,20.28,0,0,1-2.16,1.68,50,50,0,0,0-5,4.29,53,53,0,0,0-4.38,4.9,21,21,0,0,1-1.71,2.13,11.64,11.64,0,0,1,1.43-2.34,38,38,0,0,1,9.43-9.27A11.16,11.16,0,0,1,143,276Z" style="fill:#e0e0e0"></path><path d="M141.25,268.75a29.44,29.44,0,0,1-1,5.24,27.12,27.12,0,0,1-1.52,5.12,29.29,29.29,0,0,1,1-5.25A28.07,28.07,0,0,1,141.25,268.75Z" style="fill:#e0e0e0"></path><path d="M140.48,268.35c-.35.16-.45,1-.16,1.42a1.06,1.06,0,0,0,1.36.24,1.15,1.15,0,0,0,.45-1.53,1.13,1.13,0,0,0-1.69-.1" style="fill:#e0e0e0"></path><path d="M144.17,271.65c.05.13-.79.64-1.89,1.14a4.79,4.79,0,0,1-2.09.67c-.06-.12.79-.63,1.88-1.13A5.13,5.13,0,0,1,144.17,271.65Z" style="fill:#e0e0e0"></path><path d="M144.08,270.83a1.74,1.74,0,0,0-.67.85.77.77,0,0,0,.4.91.69.69,0,0,0,.66-.14,1.25,1.25,0,0,0,.39-.59,1.05,1.05,0,0,0,0-.74.52.52,0,0,0-.61-.33" style="fill:#e0e0e0"></path><path d="M144.06,275.06a1,1,0,1,0,.93.83,1,1,0,0,0-1.15-.82" style="fill:#e0e0e0"></path><path d="M139.67,264.78c.05.07-.41,1.79-1.16,4.54l-3,10.71c-1.12,3.94-2.13,7.52-3,10.68a42.25,42.25,0,0,1-1.33,4.34c-.13-.11,1.58-7.1,3.94-15.46S139.55,264.63,139.67,264.78Z" style="fill:#263238"></path><path d="M147.72,261a6.28,6.28,0,1,1-4.84-7.44A6.29,6.29,0,0,1,147.72,261Z" style="fill:#E8505B"></path><g style="opacity:0.30000000000000004"><path d="M139.54,265.66a10.19,10.19,0,0,1,.54-1.74,10.3,10.3,0,0,0,.58-4.22,5.84,5.84,0,0,0-1.84-3.7,10.85,10.85,0,0,0-1.49-1,2.73,2.73,0,0,1,1.71.7,5.75,5.75,0,0,1,2.1,3.92,9.29,9.29,0,0,1-.73,4.39A5.51,5.51,0,0,1,139.54,265.66Z"></path></g><g style="opacity:0.30000000000000004"><path d="M147.64,258.94a10,10,0,0,0-3.65.12,10.44,10.44,0,0,0-3.14,1.87s.15-.43.64-.94a5.56,5.56,0,0,1,5.11-1.5C147.29,258.65,147.66,258.88,147.64,258.94Z"></path></g><g style="opacity:0.30000000000000004"><path d="M144.81,258.62c-.08,0-.05-.44-.27-1.06a2.83,2.83,0,0,0-4.08-1.59c-.58.3-.85.64-.91.6s.12-.47.73-.89a3,3,0,0,1,4.59,1.78C145,258.19,144.86,258.63,144.81,258.62Z"></path></g><g style="opacity:0.30000000000000004"><path d="M142.81,259.28c-.14,0,0-.89-.29-1.89s-.72-1.73-.6-1.82.81.57,1.07,1.7A2.36,2.36,0,0,1,142.81,259.28Z"></path></g><g style="opacity:0.30000000000000004"><path d="M142.75,257.31c0,.15-.55.18-1.07.45s-1,.64-1.05.54.17-.6.83-1S142.78,257.2,142.75,257.31Z"></path></g><path d="M131,250.4s0,.06,0,.16-.08.25-.13.43q-.18.6-.51,1.65c-.23.71-.51,1.59-.79,2.61s-.66,2.19-1,3.49-.71,2.72-1.05,4.26-.69,3.19-1,4.92c-.64,3.49-1.23,7.35-1.65,11.42s-.58,8-.63,11.51c0,1.78,0,3.46,0,5s.11,3,.19,4.38.18,2.55.26,3.61.18,2,.26,2.72.14,1.3.18,1.72c0,.18,0,.33,0,.45s0,.15,0,.16l0-.16c0-.11,0-.26-.07-.44l-.24-1.71c-.1-.75-.22-1.66-.31-2.72s-.24-2.27-.32-3.61-.19-2.81-.23-4.39-.07-3.27-.08-5c0-3.55.22-7.46.61-11.54s1-7.95,1.69-11.44c.36-1.74.68-3.4,1.07-4.93s.74-3,1.09-4.26.72-2.45,1-3.48.59-1.89.84-2.6.43-1.24.57-1.63c.07-.17.12-.31.16-.43Z" style="fill:#263238"></path><path d="M126.11,269.34a10.07,10.07,0,0,1,4.21-5.31,2.42,2.42,0,0,1,2.22-.41c.94.46,1,1.79.74,2.8a7.43,7.43,0,0,1-3.06,4.17,6.22,6.22,0,0,1-4.59,1.15" style="fill:#263238"></path><path d="M124.47,282.13c.7-2.64,2.8-6.39,5-8a3.21,3.21,0,0,1,1.14-.6,1.31,1.31,0,0,1,1.21.26,1.85,1.85,0,0,1,.27,1.75,10.62,10.62,0,0,1-7.89,7.94" style="fill:#263238"></path><path d="M124,293.38a15.42,15.42,0,0,1,5-6.33,2.38,2.38,0,0,1,1.76-.62c.95.17,1.39,1.33,1.3,2.3-.17,2-1.69,3.59-3.26,4.83a20.25,20.25,0,0,1-4.66,2.39" style="fill:#263238"></path><path d="M124.27,301.47a14.78,14.78,0,0,1,4.29-4.87,3.1,3.1,0,0,1,1.28-.58,1.32,1.32,0,0,1,1.26.48c.43.63,0,1.48-.44,2.09a12.17,12.17,0,0,1-6.11,4.49" style="fill:#263238"></path><path d="M124.06,298.19a46.94,46.94,0,0,0-6.13-6.24,1.33,1.33,0,0,0-1.22-.46.92.92,0,0,0-.56.82,2.28,2.28,0,0,0,.24,1,11.86,11.86,0,0,0,7.88,6.64" style="fill:#263238"></path><path d="M124.26,287.66l-4.82-5.87a5.63,5.63,0,0,0-1.56-1.48,2,2,0,0,0-2,0,1.93,1.93,0,0,0-.66,1.93,5.11,5.11,0,0,0,.94,1.93,14.33,14.33,0,0,0,3.51,3.73,5.85,5.85,0,0,0,4.39,1.35" style="fill:#263238"></path><path d="M124.93,275.8a16.86,16.86,0,0,0-4.85-7.27,2.83,2.83,0,0,0-1.26-.73,2.13,2.13,0,0,0-2.21,1.55,4,4,0,0,0,.44,3.18,8.6,8.6,0,0,0,2.26,2.4,19.85,19.85,0,0,0,5.36,2.89" style="fill:#263238"></path><path d="M126.85,265.23c-.47-3.4-2.24-6.23-4.29-9-.43-.58-1-1.19-1.75-1.09a1.39,1.39,0,0,0-1,.87,3.26,3.26,0,0,0-.19,1.36,10.51,10.51,0,0,0,6.82,9.38" style="fill:#263238"></path><path d="M128.19,259.84a28.93,28.93,0,0,1-.17-5.26,9.4,9.4,0,0,1,1.74-4.9,4,4,0,0,1,1.75-1.39,2.23,2.23,0,0,1,2.15.28,2.35,2.35,0,0,1,.73,1.89,5.88,5.88,0,0,1-.54,2c-1.28,3.09-3.42,6.5-5.66,7.37" style="fill:#263238"></path><path d="M106.08,264a3.06,3.06,0,0,1,0,.48c0,.34,0,.79,0,1.35s0,1.31,0,2.15,0,1.78.1,2.83c.09,2.11.3,4.6.61,7.37s.82,5.78,1.47,8.92,1.45,6.1,2.24,8.76,1.64,5,2.4,7c.36,1,.74,1.87,1,2.64s.59,1.44.83,2,.39.93.53,1.25a2.36,2.36,0,0,1,.16.44,1.93,1.93,0,0,1-.23-.41c-.15-.31-.34-.72-.59-1.22s-.56-1.19-.88-2-.73-1.64-1.1-2.63c-.79-1.95-1.64-4.32-2.47-7s-1.61-5.64-2.28-8.79-1.12-6.19-1.45-9-.48-5.28-.54-7.39c-.05-1,0-2-.05-2.84s0-1.56,0-2.15,0-1,.05-1.36A2.15,2.15,0,0,1,106.08,264Z" style="fill:#263238"></path><path d="M106.91,279.27a7.88,7.88,0,0,1,1.89-5,1.86,1.86,0,0,1,1.56-.83c.82.11,1.19,1.09,1.22,1.91a5.82,5.82,0,0,1-1.31,3.84,4.9,4.9,0,0,1-3.16,2" style="fill:#263238"></path><path d="M108.7,289.23a13.31,13.31,0,0,1,1.84-7.19,2.7,2.7,0,0,1,.71-.72,1,1,0,0,1,1-.09,1.46,1.46,0,0,1,.61,1.25,8.33,8.33,0,0,1-4,7.8" style="fill:#263238"></path><path d="M111,297.76a12,12,0,0,1,2.27-5.93,1.87,1.87,0,0,1,1.16-.89c.76-.09,1.36.68,1.52,1.42a5.85,5.85,0,0,1-1.3,4.38,15.79,15.79,0,0,1-2.91,2.89" style="fill:#263238"></path><path d="M113.13,303.75a11.58,11.58,0,0,1,2.05-4.66,2.35,2.35,0,0,1,.83-.74,1,1,0,0,1,1,.06c.47.37.37,1.11.17,1.67a9.58,9.58,0,0,1-3.51,4.8" style="fill:#263238"></path><path d="M112.2,301.34a37,37,0,0,0-6.06-3.22,1.09,1.09,0,0,0-1-.06.72.72,0,0,0-.22.75,1.81,1.81,0,0,0,.41.71,9.3,9.3,0,0,0,7.47,3.1" style="fill:#263238"></path><path d="M109.85,293.42l-5-3.26a4.55,4.55,0,0,0-1.52-.73,1.36,1.36,0,0,0-1.57,2.07,4,4,0,0,0,1.16,1.22,11.29,11.29,0,0,0,3.5,2,4.61,4.61,0,0,0,3.61,0" style="fill:#263238"></path><path d="M107.55,284.39a13.15,13.15,0,0,0-5.34-4.29,2.25,2.25,0,0,0-1.12-.26,1.67,1.67,0,0,0-1.29,1.68,3.15,3.15,0,0,0,1.08,2.28,6.7,6.7,0,0,0,2.26,1.26,15,15,0,0,0,4.69.89" style="fill:#263238"></path><path d="M106.49,276a15.38,15.38,0,0,0-5.34-5.71,1.61,1.61,0,0,0-1.56-.4,1.06,1.06,0,0,0-.55.88,2.49,2.49,0,0,0,.18,1.07,8.24,8.24,0,0,0,7.32,5.4" style="fill:#263238"></path><path d="M106.22,271.67a22,22,0,0,1-1.38-3.89,7.44,7.44,0,0,1,.15-4.08,3.18,3.18,0,0,1,1-1.46,1.72,1.72,0,0,1,1.67-.29,1.81,1.81,0,0,1,1,1.24,4.47,4.47,0,0,1,.07,1.63c-.22,2.62-1,5.68-2.48,6.85" style="fill:#263238"></path><path d="M148.88,270.43a2,2,0,0,1,0,.43c0,.32-.1.73-.18,1.24s-.18,1.2-.33,2-.29,1.63-.52,2.58c-.4,1.91-1,4.16-1.71,6.63s-1.68,5.15-2.79,7.91-2.35,5.32-3.53,7.61-2.36,4.3-3.4,5.95c-.51.83-1,1.56-1.43,2.2s-.81,1.2-1.13,1.64l-.74,1a2.28,2.28,0,0,1-.28.34,2.14,2.14,0,0,1,.22-.38c.18-.26.41-.61.69-1s.68-1,1.09-1.67.89-1.38,1.38-2.22c1-1.66,2.15-3.68,3.34-6s2.36-4.86,3.49-7.6,2-5.42,2.81-7.88,1.34-4.69,1.77-6.59c.24-.94.4-1.81.56-2.56s.29-1.41.39-1.95l.24-1.23A1.64,1.64,0,0,1,148.88,270.43Z" style="fill:#263238"></path><path d="M145.6,284.22a7.33,7.33,0,0,0-.9-4.83,1.75,1.75,0,0,0-1.29-1c-.76,0-1.26.8-1.42,1.54a5.38,5.38,0,0,0,.55,3.71,4.53,4.53,0,0,0,2.55,2.3" style="fill:#263238"></path><path d="M142.32,293a12.42,12.42,0,0,0-.48-6.84,2.41,2.41,0,0,0-.53-.77,1,1,0,0,0-.86-.25,1.35,1.35,0,0,0-.77,1,7.69,7.69,0,0,0,2.37,7.76" style="fill:#263238"></path><path d="M138.79,300.35a11.16,11.16,0,0,0-1.08-5.77,1.71,1.71,0,0,0-.91-1c-.68-.22-1.35.38-1.62,1a5.41,5.41,0,0,0,.46,4.2,14.5,14.5,0,0,0,2.17,3.11" style="fill:#263238"></path><path d="M135.89,305.45a10.78,10.78,0,0,0-1.09-4.58,2.36,2.36,0,0,0-.63-.8,1,1,0,0,0-1-.12c-.49.26-.52.94-.43,1.49a8.8,8.8,0,0,0,2.4,4.94" style="fill:#263238"></path><path d="M137.14,303.41a34.5,34.5,0,0,1,6-1.92,1,1,0,0,1,.94.12.63.63,0,0,1,.08.71,1.62,1.62,0,0,1-.49.58,8.61,8.61,0,0,1-7.31,1.58" style="fill:#263238"></path><path d="M140.58,296.6l5.07-2.14a4.48,4.48,0,0,1,1.51-.42,1.45,1.45,0,0,1,1.32.68,1.42,1.42,0,0,1-.23,1.47,3.64,3.64,0,0,1-1.26.92,10.44,10.44,0,0,1-3.51,1.2,4.28,4.28,0,0,1-3.27-.62" style="fill:#263238"></path><path d="M144.17,288.77a12.08,12.08,0,0,1,5.57-3,2,2,0,0,1,1-.05,1.54,1.54,0,0,1,.9,1.74,2.91,2.91,0,0,1-1.37,1.9,6.13,6.13,0,0,1-2.26.77,14.49,14.49,0,0,1-4.41,0" style="fill:#263238"></path><path d="M146.52,281.34a14.24,14.24,0,0,1,5.79-4.31c.47-.22,1.07-.42,1.49-.1a1,1,0,0,1,.35.89,2.32,2.32,0,0,1-.34.94,7.62,7.62,0,0,1-7.55,3.71" style="fill:#263238"></path><path d="M147.48,277.42a20.12,20.12,0,0,0,1.9-3.31,6.86,6.86,0,0,0,.53-3.73,3,3,0,0,0-.64-1.49,1.61,1.61,0,0,0-1.47-.54,1.64,1.64,0,0,0-1.11,1,4.38,4.38,0,0,0-.34,1.47c-.22,2.42,0,5.33,1.13,6.64" style="fill:#263238"></path><path d="M156.47,283.57l-.52,0L95.48,279A1.36,1.36,0,0,0,94,280.26h0a1.35,1.35,0,0,0,1.25,1.45l1.64.12,2.2,30.82,48.35,4.2,8.28-30.61,2.27.2a1.36,1.36,0,0,0,1.48-1.25h0a1.37,1.37,0,0,0-1.23-1.46Zm-47,25.07-5.91-.49-.75-11.92,6.66.5Zm0-14.63-6.83-.51L102,282.21l7.54.57Zm12.75,15.7-7-.58v-12l7.87.59ZM123.34,295l-8.07-.6V283.21l8.91.66Zm12.4,15.81L128,310.2l.9-12,8.5.64Zm2-14.73-8.66-.65.83-11.17,9.36.7Zm6.74,15.46-3-.25,1.66-12.08,4.16.31Zm3.45-14.7-4.43-.33,1.53-11.12,5.49.42Z" style="fill:#455a64"></path><path d="M157.58,286.4c0,.14-13.73-.75-30.65-2S96.31,282,96.32,281.9s13.73.74,30.65,2S157.59,286.26,157.58,286.4Z" style="fill:#263238"></path><path d="M347.82,401.63c-.13,0,3.82-13.68,8.82-30.47s9.16-30.38,9.29-30.34-3.82,13.68-8.83,30.47S348,401.67,347.82,401.63Z" style="fill:#263238"></path><path d="M347.82,401.63c-.14,0,1.52-14.12,3.7-31.51s4.06-31.47,4.19-31.45-1.52,14.12-3.71,31.51S348,401.65,347.82,401.63Z" style="fill:#263238"></path><path d="M347.82,401.63c-.14,0-1-14.17-1.94-31.67s-1.58-31.69-1.44-31.69,1,14.17,1.93,31.67S348,401.62,347.82,401.63Z" style="fill:#263238"></path><path d="M347.82,401.63c-.13,0-3.36-13.81-7.21-30.9s-6.86-31-6.73-31,3.36,13.8,7.21,30.9S348,401.6,347.82,401.63Z" style="fill:#263238"></path><path d="M347.82,401.63c-.13.05-5.62-13.05-12.27-29.26S323.6,343,323.73,342.93,329.34,356,336,372.19,347.94,401.58,347.82,401.63Z" style="fill:#263238"></path><path d="M347.82,401.63c-.12.07-7.72-11.93-17-26.79s-16.7-27-16.58-27,7.72,11.92,17,26.79S347.93,401.56,347.82,401.63Z" style="fill:#263238"></path><path d="M347.82,401.63c-.1.09-9.61-10.47-21.24-23.57s-21-23.81-20.87-23.9,9.61,10.46,21.24,23.57S347.92,401.54,347.82,401.63Z" style="fill:#263238"></path><path d="M347.82,401.63c-.09.1-11.23-8.71-24.88-19.69s-24.66-20-24.58-20.07,11.23,8.71,24.88,19.69S347.9,401.53,347.82,401.63Z" style="fill:#263238"></path><path d="M347.82,401.63c-.07.12-12.53-6.71-27.82-15.25s-27.65-15.56-27.59-15.68,12.52,6.71,27.82,15.26S347.88,401.51,347.82,401.63Z" style="fill:#263238"></path><path d="M347.82,401.63c-.05.13-13.47-4.52-30-10.38S288,380.53,288,380.41s13.46,4.52,30,10.38S347.86,401.5,347.82,401.63Z" style="fill:#263238"></path><path d="M347.82,401.63c0,.13-14-2.21-31.3-5.22s-31.23-5.57-31.21-5.7,14,2.2,31.3,5.22S347.84,401.5,347.82,401.63Z" style="fill:#263238"></path><path d="M347.82,401.63c0,.13-14.21.17-31.73.09s-31.73-.27-31.73-.4,14.21-.17,31.73-.09S347.82,401.5,347.82,401.63Z" style="fill:#263238"></path><path d="M347.82,401.63c0,.13-14,2.55-31.27,5.39s-31.32,5.05-31.34,4.92,14-2.55,31.26-5.4S347.8,401.5,347.82,401.63Z" style="fill:#263238"></path><path d="M347.82,401.63c0,.13-13.36,4.85-29.93,10.55s-30,10.21-30.08,10.08,13.35-4.84,29.93-10.54S347.77,401.5,347.82,401.63Z" style="fill:#263238"></path><path d="M347.82,401.63c.06.12-12.36,7-27.74,15.4s-27.91,15.1-28,15,12.35-7,27.74-15.4S347.75,401.51,347.82,401.63Z" style="fill:#263238"></path><path d="M347.82,401.63c.08.11-11,9-24.77,19.82S298.06,441,298,440.9s11-9,24.78-19.83S347.73,401.53,347.82,401.63Z" style="fill:#263238"></path><path d="M347.82,401.63c.1.09-9.35,10.7-21.11,23.69s-21.36,23.45-21.46,23.36S314.59,438,326.35,425,347.72,401.54,347.82,401.63Z" style="fill:#263238"></path><path d="M347.82,401.63c.11.07-7.43,12.11-16.85,26.89s-17.14,26.69-17.25,26.62,7.42-12.11,16.84-26.88S347.7,401.56,347.82,401.63Z" style="fill:#263238"></path><path d="M347.82,401.63c.12.05-5.3,13.18-12.11,29.32s-12.44,29.19-12.56,29.14,5.3-13.18,12.11-29.32S347.69,401.58,347.82,401.63Z" style="fill:#263238"></path><path d="M347.82,401.63c.13,0-3,13.88-7,30.94s-7.38,30.85-7.51,30.82,3-13.88,7-30.93S347.69,401.6,347.82,401.63Z" style="fill:#263238"></path><path d="M347.82,401.63c.13,0-.66,14.19-1.76,31.68S343.94,465,343.81,465s.66-14.19,1.76-31.68S347.68,401.62,347.82,401.63Z" style="fill:#263238"></path><path d="M347.82,401.63c.13,0,1.72,14.1,3.56,31.53s3.21,31.56,3.08,31.57-1.73-14.09-3.56-31.52S347.68,401.64,347.82,401.63Z" style="fill:#263238"></path><path d="M347.82,401.63c.13,0,4.06,13.61,8.78,30.49s8.45,30.58,8.32,30.61-4.06-13.61-8.78-30.48S347.69,401.67,347.82,401.63Z" style="fill:#263238"></path><path d="M347.82,401.63c.12-.06,6.28,12.74,13.76,28.59S375,459,374.9,459s-6.28-12.74-13.76-28.59S347.7,401.69,347.82,401.63Z" style="fill:#263238"></path><path d="M347.82,401.63c.11-.08,8.32,11.51,18.35,25.88s18.06,26.09,17.95,26.16-8.33-11.51-18.35-25.88S347.71,401.71,347.82,401.63Z" style="fill:#263238"></path><path d="M347.82,401.63c.09-.09,10.13,10,22.42,22.45s22.17,22.69,22.07,22.79-10.13-10-22.42-22.45S347.72,401.72,347.82,401.63Z" style="fill:#263238"></path><path d="M347.82,401.63c.08-.11,11.65,8.12,25.86,18.38s25.65,18.67,25.57,18.78-11.65-8.12-25.86-18.39S347.74,401.74,347.82,401.63Z" style="fill:#263238"></path><path d="M347.82,401.63c.06-.12,12.85,6.06,28.57,13.8s28.41,14.11,28.35,14.23-12.85-6.06-28.57-13.8S347.76,401.75,347.82,401.63Z" style="fill:#263238"></path><path d="M347.82,401.63c0-.13,13.68,3.82,30.47,8.82s30.38,9.16,30.34,9.29-13.68-3.82-30.48-8.82S347.78,401.76,347.82,401.63Z" style="fill:#263238"></path><path d="M347.82,401.63c0-.13,14.13,1.48,31.52,3.6s31.48,3.95,31.46,4.09-14.12-1.48-31.52-3.61S347.8,401.76,347.82,401.63Z" style="fill:#263238"></path><path d="M347.82,401.63c0-.13,14.18-.9,31.68-1.72s31.69-1.37,31.7-1.24-14.18.91-31.68,1.72S347.82,401.76,347.82,401.63Z" style="fill:#263238"></path><path d="M347.82,401.63c0-.13,13.82-3.26,30.94-7s31-6.65,31.05-6.52-13.82,3.26-30.95,7S347.85,401.76,347.82,401.63Z" style="fill:#263238"></path><path d="M347.82,401.63c-.05-.12,13.08-5.53,29.34-12.07s29.47-11.75,29.52-11.63-13.09,5.53-29.34,12.08S347.87,401.75,347.82,401.63Z" style="fill:#263238"></path><path d="M347.82,401.63c-.07-.11,12-7.64,26.9-16.81s27.09-16.52,27.16-16.4-12,7.64-26.9,16.81S347.89,401.74,347.82,401.63Z" style="fill:#263238"></path><path d="M347.82,401.63c-.09-.1,10.53-9.54,23.71-21.07s24-20.82,24-20.72-10.53,9.54-23.72,21.08S347.9,401.73,347.82,401.63Z" style="fill:#263238"></path><path d="M347.82,401.63c-.11-.08,8.78-11.16,19.85-24.74s20.13-24.53,20.23-24.45-8.78,11.17-19.85,24.75S347.92,401.71,347.82,401.63Z" style="fill:#263238"></path><path d="M347.82,401.63c-.12-.07,6.79-12.48,15.43-27.72s15.75-27.54,15.86-27.48-6.79,12.48-15.44,27.72S347.93,401.7,347.82,401.63Z" style="fill:#263238"></path><circle cx="245.5" cy="411.85" r="18.61" style="fill:#ebebeb"></circle><circle cx="245.47" cy="412.16" r="13.01" transform="translate(-227.47 331.8) rotate(-49.58)" style="fill:#e0e0e0"></circle><path d="M114.47,401.22c-.13,0,3.82-13.68,8.82-30.47s9.16-30.38,9.29-30.34-3.82,13.68-8.83,30.48S114.59,401.26,114.47,401.22Z" style="fill:#263238"></path><path d="M114.47,401.22c-.14,0,1.52-14.12,3.7-31.5s4.06-31.47,4.19-31.46-1.53,14.13-3.71,31.52S114.6,401.24,114.47,401.22Z" style="fill:#263238"></path><path d="M114.47,401.22c-.14,0-1-14.17-1.94-31.66s-1.58-31.69-1.44-31.7,1,14.17,1.93,31.67S114.6,401.22,114.47,401.22Z" style="fill:#263238"></path><path d="M114.47,401.22c-.13,0-3.36-13.8-7.21-30.89s-6.86-31-6.73-31,3.36,13.8,7.21,30.9S114.6,401.19,114.47,401.22Z" style="fill:#263238"></path><path d="M114.47,401.22c-.13,0-5.62-13.05-12.27-29.25s-12-29.4-11.83-29.45,5.62,13.05,12.28,29.26S114.59,401.17,114.47,401.22Z" style="fill:#263238"></path><path d="M114.47,401.22c-.12.07-7.73-11.92-17-26.79s-16.7-27-16.58-27.05,7.71,11.92,17,26.79S114.58,401.15,114.47,401.22Z" style="fill:#263238"></path><path d="M114.47,401.22c-.1.09-9.61-10.46-21.24-23.57s-21-23.81-20.87-23.9S82,364.22,93.6,377.33,114.57,401.14,114.47,401.22Z" style="fill:#263238"></path><path d="M114.47,401.22c-.09.11-11.23-8.71-24.88-19.69s-24.66-20-24.57-20.07,11.22,8.72,24.87,19.7S114.55,401.12,114.47,401.22Z" style="fill:#263238"></path><path d="M114.47,401.22c-.07.12-12.53-6.71-27.82-15.25S59,370.41,59.06,370.3,71.58,377,86.88,385.55,114.53,401.11,114.47,401.22Z" style="fill:#263238"></path><path d="M114.47,401.22c0,.13-13.47-4.52-30-10.38S54.62,380.13,54.67,380s13.46,4.52,30,10.38S114.51,401.1,114.47,401.22Z" style="fill:#263238"></path><path d="M114.47,401.22c0,.14-14-2.2-31.3-5.22S51.94,390.43,52,390.3s14,2.21,31.3,5.22S114.49,401.09,114.47,401.22Z" style="fill:#263238"></path><path d="M114.47,401.22c0,.14-14.21.18-31.73.09S51,401,51,400.91s14.21-.17,31.73-.08S114.47,401.09,114.47,401.22Z" style="fill:#263238"></path><path d="M114.47,401.22c0,.14-14,2.55-31.27,5.4s-31.32,5-31.35,4.91,14-2.55,31.27-5.39S114.44,401.09,114.47,401.22Z" style="fill:#263238"></path><path d="M114.47,401.22c0,.13-13.36,4.85-29.93,10.55s-30,10.21-30.08,10.09S67.81,417,84.39,411.31,114.42,401.1,114.47,401.22Z" style="fill:#263238"></path><path d="M114.47,401.22c.06.12-12.36,7-27.74,15.41s-27.91,15.09-28,15,12.35-7,27.74-15.4S114.4,401.11,114.47,401.22Z" style="fill:#263238"></path><path d="M114.47,401.22c.08.11-11,9-24.77,19.83s-25,19.55-25.08,19.44,11-9,24.78-19.82S114.38,401.12,114.47,401.22Z" style="fill:#263238"></path><path d="M114.47,401.22c.1.09-9.35,10.7-21.11,23.69S72,448.37,71.9,448.28s9.34-10.7,21.1-23.69S114.37,401.13,114.47,401.22Z" style="fill:#263238"></path><path d="M114.47,401.22c.11.08-7.43,12.11-16.85,26.89s-17.14,26.7-17.25,26.63,7.42-12.11,16.84-26.89S114.35,401.15,114.47,401.22Z" style="fill:#263238"></path><path d="M114.47,401.22c.12.06-5.3,13.19-12.11,29.33S89.92,459.74,89.8,459.68s5.3-13.17,12.11-29.32S114.34,401.17,114.47,401.22Z" style="fill:#263238"></path><path d="M114.47,401.22c.13,0-3,13.89-7,30.94S100.05,463,99.92,463s3-13.88,7-30.94S114.34,401.19,114.47,401.22Z" style="fill:#263238"></path><path d="M114.47,401.22c.13,0-.66,14.2-1.77,31.68s-2.11,31.66-2.24,31.65.65-14.19,1.76-31.68S114.33,401.22,114.47,401.22Z" style="fill:#263238"></path><path d="M114.47,401.22c.13,0,1.72,14.11,3.56,31.53s3.21,31.56,3.08,31.58-1.73-14.1-3.56-31.53S114.33,401.24,114.47,401.22Z" style="fill:#263238"></path><path d="M114.47,401.22c.13,0,4.06,13.62,8.78,30.49s8.45,30.58,8.32,30.62-4.06-13.61-8.78-30.49S114.34,401.26,114.47,401.22Z" style="fill:#263238"></path><path d="M114.47,401.22c.12-.05,6.28,12.75,13.76,28.59s13.44,28.74,13.32,28.8-6.28-12.74-13.76-28.59S114.35,401.28,114.47,401.22Z" style="fill:#263238"></path><path d="M114.47,401.22c.11-.07,8.32,11.52,18.34,25.89s18.07,26.08,18,26.16-8.33-11.51-18.35-25.89S114.36,401.3,114.47,401.22Z" style="fill:#263238"></path><path d="M114.47,401.22c.09-.09,10.13,10,22.42,22.45s22.17,22.7,22.07,22.79-10.13-9.95-22.42-22.45S114.37,401.32,114.47,401.22Z" style="fill:#263238"></path><path d="M114.47,401.22c.07-.1,11.65,8.13,25.85,18.39S166,438.27,165.9,438.38,154.25,430.26,140,420,114.39,401.33,114.47,401.22Z" style="fill:#263238"></path><path d="M114.47,401.22c.06-.12,12.85,6.06,28.57,13.8s28.41,14.11,28.35,14.23-12.85-6.05-28.57-13.79S114.41,401.34,114.47,401.22Z" style="fill:#263238"></path><path d="M114.47,401.22c0-.12,13.68,3.83,30.47,8.83s30.38,9.16,30.34,9.29-13.68-3.83-30.48-8.83S114.43,401.35,114.47,401.22Z" style="fill:#263238"></path><path d="M114.47,401.22c0-.13,14.13,1.48,31.52,3.61s31.48,3.95,31.46,4.08-14.12-1.48-31.52-3.6S114.45,401.36,114.47,401.22Z" style="fill:#263238"></path><path d="M114.47,401.22c0-.13,14.18-.9,31.68-1.72s31.69-1.37,31.7-1.24-14.18.91-31.68,1.73S114.47,401.36,114.47,401.22Z" style="fill:#263238"></path><path d="M114.47,401.22c0-.13,13.82-3.26,30.94-7s31-6.66,31.05-6.53-13.82,3.27-31,7S114.49,401.35,114.47,401.22Z" style="fill:#263238"></path><path d="M114.47,401.22c0-.12,13.08-5.53,29.33-12.07s29.48-11.75,29.53-11.63S160.24,383.05,144,389.6,114.52,401.35,114.47,401.22Z" style="fill:#263238"></path><path d="M114.47,401.22c-.07-.11,12-7.64,26.9-16.81s27.09-16.51,27.16-16.4-12,7.64-26.9,16.82S114.54,401.34,114.47,401.22Z" style="fill:#263238"></path><path d="M114.47,401.22c-.09-.1,10.53-9.53,23.71-21.07s23.95-20.81,24-20.71S151.69,369,138.5,380.51,114.55,401.32,114.47,401.22Z" style="fill:#263238"></path><path d="M114.47,401.22c-.11-.08,8.78-11.16,19.85-24.74S154.45,352,154.55,352s-8.78,11.16-19.85,24.74S114.57,401.31,114.47,401.22Z" style="fill:#263238"></path><path d="M114.47,401.22c-.12-.06,6.79-12.47,15.43-27.71S145.64,346,145.76,346,139,358.5,130.32,373.75,114.58,401.29,114.47,401.22Z" style="fill:#263238"></path><path d="M42.41,401.22a72.06,72.06,0,1,0,72.06-72.06A72.06,72.06,0,0,0,42.41,401.22Zm6.08,0a66,66,0,1,1,66,66A66,66,0,0,1,48.49,401.22Z" style="fill:#263238"></path><path d="M48.49,401.22a66,66,0,1,0,66-66A66,66,0,0,0,48.49,401.22Zm2.53,0a63.45,63.45,0,1,1,63.45,63.45A63.45,63.45,0,0,1,51,401.22Z" style="fill:#e0e0e0"></path><path d="M275.76,401.22a72.06,72.06,0,1,0,72.06-72.06A72.06,72.06,0,0,0,275.76,401.22Zm6.08,0a66,66,0,1,1,66,66A66,66,0,0,1,281.84,401.22Z" style="fill:#263238"></path><path d="M281.84,401.22a66,66,0,1,0,66-66A66,66,0,0,0,281.84,401.22Zm2.53,0a63.45,63.45,0,1,1,63.45,63.45A63.45,63.45,0,0,1,284.37,401.22Z" style="fill:#e0e0e0"></path><rect x="313.72" y="395.76" width="4.1" height="11.76" style="fill:#455a64"></rect><rect x="308.32" y="313.5" width="2.8" height="102.99" transform="translate(-167.94 333.5) rotate(-45.91)" style="fill:#455a64"></rect><path d="M425.6,383.26s-16-60.2-75.7-60.2-81.1,47.16-81.1,84.46l5.26-1.14s-2.87-78.22,76.07-78.22c53.76,0,70.85,57.12,70.85,57.12Z" style="fill:#455a64"></path><path d="M225.36,409.79s3.48-16.89,17.71-19.18,71.18,0,71.18,0,5.86.24,5.86,7.65l-36.7,1.33a18,18,0,0,0-8.27,2.33l-11.36,6.42s-4.65-18.37-23-13.65C229.47,397.62,227,410.28,227,410.28Z" style="fill:#e0e0e0"></path><path d="M225.36,409.79l.4.1,1.21.35-.05,0a23.57,23.57,0,0,1,2.27-6.08,20.87,20.87,0,0,1,2.87-4.18,18.2,18.2,0,0,1,4.78-3.91,20.87,20.87,0,0,1,6.88-2.15,19.49,19.49,0,0,1,4-.16,15.68,15.68,0,0,1,4.15.76,16.82,16.82,0,0,1,7.46,5.06,23.84,23.84,0,0,1,4.67,8.68l-.32-.14,11.27-6.39a18.27,18.27,0,0,1,6.55-2.25,32.2,32.2,0,0,1,3.54-.23l3.57-.13,30.28-1.1,1.22-.05-.25.26a8.27,8.27,0,0,0-1.51-5.15,5.91,5.91,0,0,0-4.65-2.26l-10.89-.38c-7.13-.22-14-.39-20.57-.5s-12.79-.17-18.62-.14-11.25.14-16.18.5c-1.24.06-2.43.24-3.59.36a12,12,0,0,0-1.71.31c-.55.13-1.1.24-1.63.39L239,392c-.25.1-.5.19-.74.3l-.69.37-1.35.74-1.21.87a23.67,23.67,0,0,0-6.42,7.61,33.52,33.52,0,0,0-2.55,5.81c-.24.68-.39,1.22-.49,1.58s-.15.53-.16.54a3.21,3.21,0,0,1,.11-.56c.09-.36.22-.9.44-1.59a32.06,32.06,0,0,1,2.47-5.88,23.7,23.7,0,0,1,6.43-7.74l1.22-.89,1.36-.76.71-.39c.24-.11.5-.2.75-.3l1.55-.61c.54-.15,1.1-.26,1.66-.4a11,11,0,0,1,1.73-.32c1.17-.14,2.37-.32,3.61-.38,4.95-.39,10.38-.52,16.21-.57s12.06,0,18.62.09,13.45.26,20.59.47l10.89.37a6.49,6.49,0,0,1,5,2.45,8.81,8.81,0,0,1,1.62,5.48v.26h-.26l-1.22.05-30.28,1.08-3.58.12a30.5,30.5,0,0,0-3.48.23,17.94,17.94,0,0,0-6.38,2.17l-11.3,6.36-.24.14-.08-.28a23.57,23.57,0,0,0-4.55-8.51,16.37,16.37,0,0,0-7.27-5,15.72,15.72,0,0,0-4.06-.77,19.46,19.46,0,0,0-3.91.15,20.53,20.53,0,0,0-6.79,2.07,18.22,18.22,0,0,0-4.74,3.81,20.94,20.94,0,0,0-2.88,4.12,24.86,24.86,0,0,0-2.36,6v0h0l-1.22-.4A3.5,3.5,0,0,1,225.36,409.79Z" style="fill:#263238"></path><path d="M259,372.91v-6.73c-13.44,0-22.69-3.31-28.09-6.09a31.37,31.37,0,0,1-8.56-6.08l-.06-.07-55.47-60.33-4.95,4.55,55.44,60.3C218.33,359.59,230.67,372.91,259,372.91Z" style="fill:#455a64"></path><rect x="213.05" y="364.57" width="98.38" height="6.73" transform="translate(-163.57 519.05) rotate(-74.06)" style="fill:#455a64"></rect><polygon points="247.45 418.82 348.29 404.55 347.35 397.89 250.02 411.66 159.97 313.16 155 317.69 247.45 418.82" style="fill:#455a64"></polygon><polygon points="172.82 258.62 178.08 259.94 167.98 294.83 163.35 292.66 172.82 258.62" style="fill:#e0e0e0"></polygon><path d="M190.32,427.25s12.28-37.87-9.88-69.41-52.25-34.07-64.17-35.67l-.32,5s31.61,2.09,50,20.17a79.59,79.59,0,0,1,21.44,76.46Z" style="fill:#455a64"></path><path d="M116.55,404.09c14-11.07,26.17-36.9,26.68-38l.13-.3,25.71-72.89-6.34-2.24L137.07,363.4c-1,2.05-12.4,25.72-24.69,35.4Z" style="fill:#455a64"></path><path d="M285.78,339.55l20.85-22.7h90.28a1.52,1.52,0,0,0,1.61-1.4h0a1.51,1.51,0,0,0-1.61-1.4H305.08l-21.63,23.54Z" style="fill:#455a64"></path><rect x="312.39" y="356.93" width="87.09" height="2.8" transform="translate(-58.8 646.58) rotate(-79.99)" style="fill:#455a64"></rect><path d="M333.27,401.84a12.46,12.46,0,1,1,12.46,12.45A12.46,12.46,0,0,1,333.27,401.84Z" style="fill:#263238"></path><path d="M102,401.84a12.46,12.46,0,1,1,12.46,12.45A12.46,12.46,0,0,1,102,401.84Z" style="fill:#263238"></path><path d="M229.93,422.36a21.18,21.18,0,0,0,9.92,7.06,42.3,42.3,0,0,0,8.56,2,75.45,75.45,0,0,0,10.62,1,100.13,100.13,0,0,0,12.22-.79c8.58-1,18-2.47,27.78-4.32s19.11-3.84,27.57-5.69l12-2.66a42.83,42.83,0,0,0,10.09-3.36,20.62,20.62,0,0,0,3.87-2.56,16,16,0,0,0,2.75-3.09,13.85,13.85,0,0,0,2.38-6.18,10.11,10.11,0,0,0-.32-4.2c-.28-.92-.53-1.38-.49-1.39l.17.33a7.74,7.74,0,0,1,.41,1,9.83,9.83,0,0,1,.42,4.25,14,14,0,0,1-2.34,6.31,16.3,16.3,0,0,1-2.78,3.18,20.7,20.7,0,0,1-3.91,2.63,43.29,43.29,0,0,1-10.16,3.45l-12,2.7c-8.45,1.88-17.75,3.9-27.57,5.74s-19.22,3.3-27.82,4.28a98.52,98.52,0,0,1-12.28.75,75.16,75.16,0,0,1-10.66-1,41.84,41.84,0,0,1-8.6-2.09,21.93,21.93,0,0,1-5.88-3.19,18.4,18.4,0,0,1-3.07-2.94l-.67-.88A1.37,1.37,0,0,1,229.93,422.36Z" style="fill:#263238"></path><path d="M72.31,420.9h0A4.32,4.32,0,0,1,66.5,419l-5.58-11a4.33,4.33,0,0,1,1.91-5.81h0a4.32,4.32,0,0,1,5.81,1.9l5.58,11A4.33,4.33,0,0,1,72.31,420.9Z" style="fill:#E8505B"></path><path d="M393.78,415.36h0a4.33,4.33,0,0,1-3.42-5.08l2.38-12.11a4.33,4.33,0,0,1,5.08-3.42h0a4.33,4.33,0,0,1,3.41,5.08L398.85,412A4.32,4.32,0,0,1,393.78,415.36Z" style="fill:#E8505B"></path><path d="M308.37,289.17c-.78,2.41-4.26,12.55-9.36,12.92s-40.36-5.12-45.65-6.46c-3.36-.85-5.3-6.46,2.71-6.46C267.57,289.17,310.12,283.79,308.37,289.17Z" style="fill:#455a64"></path><path d="M196.92,229s-16.47-3.06-17.68-2.78a6.54,6.54,0,0,0-2.4,1.38s-5.65,8.15-6.2,9.17a4,4,0,0,0,.46,3.8c.74.92,8.24,4.44,8.24,4.44a1.13,1.13,0,0,0,.55-1.21l3.74,1.21a4.34,4.34,0,0,0,0-2.41l3.11,1s1.11-.19.09-2.31-5.09-5.28-5.09-5.28l.84-1.76,3.7-.65,8.23-1.75Z" style="fill:#ffbe9d"></path><path d="M186.35,240.54s.09.05.22.18a3.45,3.45,0,0,1,.5.62,2.66,2.66,0,0,1,.41,1.24,2,2,0,0,1-.72,1.6l-.07.06-.11,0-3.09-1.28h0l-4-3.21a12.27,12.27,0,0,1-1.89-1.71,2.34,2.34,0,0,1-.51-1.21,3.23,3.23,0,0,1,.15-1.22,11.81,11.81,0,0,1,1.62-3.66,4.61,4.61,0,0,1,2.15-1.65,1.82,1.82,0,0,1,1-.14c0,.05-.35.07-.91.33a4.85,4.85,0,0,0-1.92,1.67,12.46,12.46,0,0,0-1.46,3.58,2,2,0,0,0,.3,2,11.77,11.77,0,0,0,1.83,1.63l4,3.22,0,0,3,1.36-.19,0a1.7,1.7,0,0,0,.64-1.29,2.6,2.6,0,0,0-.29-1.13C186.58,240.86,186.31,240.57,186.35,240.54Z" style="fill:#eb996e"></path><path d="M177,230a4.91,4.91,0,0,1-1.25,2.43c-.51.67-1.2,1.4-1.78,2.3a4.54,4.54,0,0,0-.86,3.21,4.29,4.29,0,0,0,2.11,2.55l2.44,1.63a14,14,0,0,1,2.18,1.62,14.34,14.34,0,0,1-2.38-1.31L175,240.89a8.18,8.18,0,0,1-1.41-1.1,3.47,3.47,0,0,1-.94-1.75,4.86,4.86,0,0,1,1-3.57,25.42,25.42,0,0,1,1.89-2.27A14.77,14.77,0,0,0,177,230Z" style="fill:#eb996e"></path><path d="M183.17,242.46s.26.2.41.73a2.61,2.61,0,0,1-.4,2.24l-.09.12-.15-.05a15.94,15.94,0,0,1-3.93-2l.39-.31a2.77,2.77,0,0,1,.12.41,3.41,3.41,0,0,1-.06,1.77l-.09.31-.28-.16a41.72,41.72,0,0,1-5.2-3.19,41.2,41.2,0,0,1,5.45,2.75l-.37.15a3,3,0,0,0,0-1.52,1.91,1.91,0,0,0-.1-.34l-.26-.76.66.46a18.37,18.37,0,0,0,3.77,2l-.23.07a2.54,2.54,0,0,0,.51-1.94C183.28,242.74,183.12,242.48,183.17,242.46Z" style="fill:#eb996e"></path><polygon points="230.8 386.19 246.68 417.98 251.19 417.98 236.06 385 230.8 386.19" style="fill:#263238"></polygon><rect x="219.78" y="378.8" width="22.69" height="7.49" style="fill:#e0e0e0"></rect><path d="M332.07,178.09c-5.06,1.11-9.44,4.14-13.48,8.1L330,209.77Z" style="fill:#E8505B"></path><path d="M190.28,227.84c.87-.22,46-28.92,49.67-31.53s18.82-19.2,18.82-19.2l15.09,17.19-17,15.53c-1.51,1.49-7.33,6.66-9.28,7.52l-49.8,23.57Z" style="fill:#ffbe9d"></path><path d="M214.49,345.25l7.58,23s-20.83,15.42-19.84,19.8L247.33,375,237,338.66Z" style="fill:#E8505B"></path><path d="M235.45,362.25a1.91,1.91,0,0,1,1.88,1.73,1.84,1.84,0,0,1-1.7,1.88,2,2,0,0,1-2-1.85,1.93,1.93,0,0,1,2-1.76" style="fill:#e0e0e0"></path><path d="M247.64,375.91l-1-3.52-43.3,12.86s-1.75,1.45-1.11,2.8Z" style="fill:#263238"></path><path d="M221.27,368.23c.07.22,1.2,0,2.49.39s2.13,1.15,2.31,1-.52-1.33-2.09-1.78S221.16,368,221.27,368.23Z" style="fill:#263238"></path><path d="M217.1,371.56c0,.23,1.08.32,2.1,1s1.52,1.64,1.73,1.56,0-1.36-1.28-2.22S217.05,371.35,217.1,371.56Z" style="fill:#263238"></path><path d="M216.06,378c.21,0,.2-1.2-.71-2.24s-2.09-1.23-2.13-1,.79.67,1.52,1.54S215.83,378,216.06,378Z" style="fill:#263238"></path><path d="M220.12,362.8c.15.17,1.08-.43,2.35-.7s2.35-.17,2.41-.39-1.1-.74-2.59-.39S220,362.66,220.12,362.8Z" style="fill:#263238"></path><path d="M284.1,248.4c-1.21,0-77,4.4-82.77,5.61s-19.18,3.92-15.7,23.55c3.53,19.92,25.67,79.4,26.57,79.4S243.3,350,243.3,350l-18.75-60.79s22.07.71,38.07.4,50.42-1.2,50.42-1.2,19.33-6,19-30.5Z" style="fill:#263238"></path><path d="M256.94,109.73a19.67,19.67,0,0,1,16.59-20.89l1-.16c11-1.06,18,7.65,18.72,18.63l2.85,34.06-21.53,26.07L273,153.18l-1.19-8s-10.69,0-12.44-10.41C258.55,129.73,257.65,119.24,256.94,109.73Z" style="fill:#ffbe9d"></path><path d="M271.75,145.17a25.59,25.59,0,0,0,13-6.14s-2,8-12.6,8.7Z" style="fill:#eb996e"></path><path d="M263.3,117a1.49,1.49,0,0,0,1.67,1.27,1.44,1.44,0,0,0,1.33-1.58,1.52,1.52,0,0,0-1.67-1.28A1.45,1.45,0,0,0,263.3,117Z" style="fill:#263238"></path><path d="M260.7,113.77c.2.18,1.29-.72,2.91-.8s2.85.68,3,.47-.13-.44-.66-.79a4.12,4.12,0,0,0-2.43-.61,4,4,0,0,0-2.31.87C260.75,113.32,260.6,113.68,260.7,113.77Z" style="fill:#263238"></path><path d="M278.34,115.56a1.49,1.49,0,0,0,1.67,1.27,1.43,1.43,0,0,0,1.32-1.58,1.51,1.51,0,0,0-1.67-1.28A1.44,1.44,0,0,0,278.34,115.56Z" style="fill:#263238"></path><path d="M275.35,112.33c.21.16,1.21-.85,2.82-1.1s2.9.38,3,.15-.17-.42-.74-.71a4.14,4.14,0,0,0-2.47-.36,4,4,0,0,0-2.21,1.11C275.36,111.88,275.25,112.25,275.35,112.33Z" style="fill:#263238"></path><path d="M271.82,125.12a10.77,10.77,0,0,0-2.68-.06c-.42,0-.82,0-.93-.27a2.17,2.17,0,0,1,.08-1.26c.24-1,.48-2.15.73-3.3,1-4.7,1.64-8.54,1.45-8.58s-1.15,3.74-2.14,8.44c-.23,1.16-.46,2.26-.67,3.32a2.44,2.44,0,0,0,0,1.64,1.06,1.06,0,0,0,.77.49,2.76,2.76,0,0,0,.71,0A11.07,11.07,0,0,0,271.82,125.12Z" style="fill:#263238"></path><path d="M276.71,125.49c-.27,0,0,1.77-1.3,3.24s-3.17,1.56-3.15,1.81.47.27,1.25.17a4.4,4.4,0,0,0,2.65-1.41,3.83,3.83,0,0,0,1-2.7C277.08,125.87,276.82,125.46,276.71,125.49Z" style="fill:#263238"></path><path d="M274.39,106.11c.22.41,1.79,0,3.71-.11s3.51.21,3.7-.22c.08-.21-.24-.58-.92-.9a6.17,6.17,0,0,0-2.86-.53,6,6,0,0,0-2.79.78C274.58,105.52,274.29,105.91,274.39,106.11Z" style="fill:#263238"></path><path d="M259.84,109.75c.34.32,1.39-.23,2.71-.45s2.49-.14,2.69-.56c.09-.2-.15-.54-.69-.81a3.79,3.79,0,0,0-2.3-.25,3.73,3.73,0,0,0-2.05,1.07C259.79,109.2,259.69,109.59,259.84,109.75Z" style="fill:#263238"></path><path d="M299.5,112.77a3,3,0,0,0,3.05-2.24,2.61,2.61,0,0,1-2.45-2.31,8.09,8.09,0,0,1,.5-3.63,6.76,6.76,0,0,0,.32-3.63,3.64,3.64,0,0,0-4.17-2.48,4.18,4.18,0,0,0-4.38-6,8.52,8.52,0,0,0-13.15-7.08,7.3,7.3,0,0,0-11.87.35,7,7,0,0,0-10.48,3.13c-.61,1.5-.69,3.19-1.45,4.62a5.56,5.56,0,0,1-2.38,2.3c-.78.38-1.77.73-1.89,1.58a1.45,1.45,0,0,0,.75,1.36,4.47,4.47,0,0,0,1.57.47,2,2,0,0,0-1.79,2,3.1,3.1,0,0,0,1.36,2.48,7.08,7.08,0,0,0,2.71,1.06,11,11,0,0,0,6.74-.41,22.51,22.51,0,0,0,4.65-3.52c1.5-1.25,3.32-2.35,5.27-2.19,1.6.13,3.16,1.11,4.72.7,2-.52,2.83-3,4.68-3.93l.16-.07,1.36-.24a3.62,3.62,0,0,1,3.21,2.29,4,4,0,0,1-.3,1.64,9.73,9.73,0,0,0,4.66,10.76l.67,6.4c0,1.66.81,2.87,2.45,2.62h0s0-1.47,0-3.21a10.31,10.31,0,0,0,1.28.46c2.29.64,5,.6,6.71-1.06A6,6,0,0,1,299.5,112.77Z" style="fill:#263238"></path><path d="M292.88,115.28c.17-.11,6.84-3.24,7.72,3.92s-6.49,6.58-6.53,6.38S292.88,115.28,292.88,115.28Z" style="fill:#ffbe9d"></path><path d="M295.3,122.69s.13.07.36.14a1.22,1.22,0,0,0,.93-.1,3.12,3.12,0,0,0,1.09-2.94,4.21,4.21,0,0,0-.57-1.75,1.46,1.46,0,0,0-1.06-.84.63.63,0,0,0-.69.43c-.07.22,0,.35-.05.37s-.17-.1-.14-.4a.79.79,0,0,1,.22-.49,1,1,0,0,1,.67-.27,1.76,1.76,0,0,1,1.44,1,4.24,4.24,0,0,1,.68,1.95c.13,1.45-.44,2.89-1.44,3.32a1.35,1.35,0,0,1-1.16,0C295.33,122.86,295.27,122.7,295.3,122.69Z" style="fill:#eb996e"></path><path d="M301.24,114.79l-.29,0a2.31,2.31,0,0,1-.83-.19,4.13,4.13,0,0,1-2.09-2.27,12.71,12.71,0,0,1-.56-4.53,8.73,8.73,0,0,0-.38-2.56,4.11,4.11,0,0,0-1.51-2.17,5.49,5.49,0,0,0-2.65-.57,2.52,2.52,0,0,1-1.39-.55,2,2,0,0,1-.6-1.33,21.51,21.51,0,0,0,0-2.39A2.94,2.94,0,0,0,287.28,96a8.23,8.23,0,0,0-1,.41s.06-.09.21-.21a2.54,2.54,0,0,1,.75-.39,3.12,3.12,0,0,1,3,.52,3.31,3.31,0,0,1,1.14,1.87,18,18,0,0,1,0,2.43,1.5,1.5,0,0,0,.45,1A1.92,1.92,0,0,0,293,102c.44.06.91.06,1.41.12a3.47,3.47,0,0,1,1.47.52,4.66,4.66,0,0,1,1.71,2.45,9.35,9.35,0,0,1,.37,2.71,13,13,0,0,0,.42,4.4,4.08,4.08,0,0,0,1.83,2.22A6,6,0,0,0,301.24,114.79Z" style="fill:#455a64"></path><path d="M251.4,97.25s.64.13,1.8.15a9.06,9.06,0,0,0,4.64-1.28,8.43,8.43,0,0,0,2.44-2.25,36.61,36.61,0,0,1,2.23-3.25,5.36,5.36,0,0,1,1.75-1.35,4,4,0,0,1,2.32-.25c1.55.26,2.94,1.09,4.46,1.17a8.39,8.39,0,0,0,4.23-1.4,10.61,10.61,0,0,1,4.14-1.52,7,7,0,0,1,6.64,2.82,6.25,6.25,0,0,1,.91,4.85,5.18,5.18,0,0,1-.5,1.27c-.17.26-.27.4-.29.39a7.72,7.72,0,0,0,.59-1.7,6.1,6.1,0,0,0-1-4.6,6.69,6.69,0,0,0-6.28-2.56,10.21,10.21,0,0,0-3.94,1.49,8.64,8.64,0,0,1-4.5,1.48c-1.71-.1-3.1-1-4.53-1.19a3.37,3.37,0,0,0-2,.21,4.69,4.69,0,0,0-1.61,1.21c-.89,1-1.48,2.19-2.24,3.19a8.51,8.51,0,0,1-2.6,2.31,8.91,8.91,0,0,1-4.83,1.17,8,8,0,0,1-1.34-.21C251.55,97.32,251.39,97.27,251.4,97.25Z" style="fill:#455a64"></path><path d="M273.18,193.57l.37,28.88.33,26.51,10.22-.56,50.41,10.14s-6.6-52.49-7.88-61.78a176.72,176.72,0,0,0-4.48-22.41c-2.84-9.52-7.24-27.46-26.13-33.92,0,0-10.43,4-15.61,6.78-4.86,2.64-21.41,25.47-21.41,25.47Z" style="fill:#455a64"></path><path d="M256.88,175l13-14c.18-.21,23.73,17.35,23.73,17.35l-16.86,19.3Z" style="fill:#455a64"></path><path d="M256.88,175a3.89,3.89,0,0,1,.4.4c.28.29.64.69,1.1,1.18,1,1.09,2.36,2.61,4.08,4.53L276.62,197h-.37c3.49-4.46,7.66-9.06,11.8-14.07a44.79,44.79,0,0,0,5.38-7.94,50.11,50.11,0,0,0,3.37-8.27,21.2,21.2,0,0,0,1-7.95,11.22,11.22,0,0,0-2.46-6.39,15.55,15.55,0,0,0-4.58-3.48,18.59,18.59,0,0,0-4.09-1.54,13.69,13.69,0,0,0-2.75-.38c-.63,0-1,0-1,0a.61.61,0,0,1,.25,0c.16,0,.4,0,.72-.07a12.73,12.73,0,0,1,2.79.29,18.11,18.11,0,0,1,4.18,1.48,15.66,15.66,0,0,1,4.73,3.5,11.52,11.52,0,0,1,2.61,6.59,21.35,21.35,0,0,1-.94,8.12,49.16,49.16,0,0,1-3.38,8.38,45.31,45.31,0,0,1-5.42,8c-4.16,5-8.35,9.61-11.83,14l-.18.23-.19-.21-14-16-4-4.61-1-1.24A3.56,3.56,0,0,1,256.88,175Z" style="fill:#263238"></path><path d="M273.24,198.25l.62-1.83,3.34,3.84s13.28-14.24,15.89-19.93a43.56,43.56,0,0,0,4-14,23.07,23.07,0,0,1-2,5.61c-2.08,4.37-5.86,10.92-14.36,19.88l-4.32,5.25-3.26-3.55Z" style="opacity:0.30000000000000004"></path><path d="M254.35,289.71a6.92,6.92,0,0,1-1.45.06h-4c-3.34,0-8-.13-13.06-.26s-9.71-.28-13-.41l-4-.19a8.48,8.48,0,0,1-1.45-.13,7.32,7.32,0,0,1,1.46-.07l4,0c3.34,0,8,.13,13.06.26s9.7.27,13,.41l4,.18A7.88,7.88,0,0,1,254.35,289.71Z" style="fill:#455a64"></path><path d="M224.55,289.23s0,.07.09.23l.23.68.83,2.66c.73,2.35,1.77,5.67,3,9.77L239,334.74c1.66,5.34,3.21,10.49,4.57,15.21l.07.25-.26.06L221,355.16l-6.45,1.37-1.73.34a2.27,2.27,0,0,1-.6.09,4.55,4.55,0,0,1,.58-.17l1.71-.42,6.42-1.51,22.34-5.08-.19.31c-1.37-4.71-2.93-9.85-4.59-15.2-3.92-12.58-7.59-23.94-10.08-32.22-1.25-4.13-2.23-7.49-2.88-9.81-.31-1.14-.56-2-.74-2.69l-.18-.7C224.55,289.31,224.54,289.23,224.55,289.23Z" style="fill:#455a64"></path><path d="M328,187.88A20.37,20.37,0,0,1,328,191c0,2.09,0,4.69-.06,7.56s0,5.47,0,7.57a20.55,20.55,0,0,1-.06,3.14,16.76,16.76,0,0,1-.3-3.13c-.11-1.94-.2-4.62-.19-7.58s.09-5.64.21-7.58A17,17,0,0,1,328,187.88Z" style="fill:#263238"></path><path d="M273.16,238.27s-4.15-4.42-3-9.39a27.12,27.12,0,0,1,2.77-7.69s8.74-3.86,10-2.71a2.46,2.46,0,0,1,.55,2.77s2.63-.81,2.5,1.22a3.33,3.33,0,0,1-1.83,2.77,2.79,2.79,0,0,1-1.15,3l-1.69,1.28s.14,1-1.42,2.23S273.16,238.27,273.16,238.27Z" style="fill:#ffbe9d"></path><path d="M284.21,221.19c0,.15-2.81,1-6.26,2.3s-6.21,2.43-6.27,2.29a43.43,43.43,0,0,1,12.53-4.59Z" style="fill:#eb996e"></path><path d="M284.13,225.24a38.49,38.49,0,0,1-5.88,2.51,39.48,39.48,0,0,1-6.07,2,38.49,38.49,0,0,1,5.88-2.51A39.48,39.48,0,0,1,284.13,225.24Z" style="fill:#eb996e"></path><path d="M282.26,228.77a22.82,22.82,0,0,1-4.6,2.68c-2.63,1.3-4.7,2.45-4.77,2.34a18.45,18.45,0,0,1,4.53-2.81A35.59,35.59,0,0,1,282.26,228.77Z" style="fill:#eb996e"></path><path d="M332.07,178.09l8.44-.91,23.75-1.75,18.45,3-5.11,56.81.91,8.18-45.28.56-5.53-36.46a21.17,21.17,0,0,1,.25-5.09Z" style="fill:#E8505B"></path><path d="M375.88,232.37s-1.65,13.29,4.85,19.24c9.32,8.54,16.76,16.64,16.84,33.25.06,12-17.92,26.36-17.92,26.36L303.84,306s-5.18-4.65,9.31-20.43c5.37-5.85,19.55-20.85,19.55-20.85l.53-24.47H330.6Z" style="fill:#E8505B"></path><path d="M316.29,286.51s-13.08,14.11-13.08,23.42,17.2,73.22,21.53,87.52l14.74-4.4s-4.29-41.17-6.16-53-2.49-19.15-2.49-19.15l18-20.91S325.6,284.64,316.29,286.51Z" style="fill:#ffbe9d"></path><path d="M323.91,396.49l.51,1s-12.72,15.26-11.23,18.43l32.13-17.52-6.26-10.45A20.92,20.92,0,0,1,323.91,396.49Z" style="fill:#E8505B"></path><g style="opacity:0.6000000000000001"><path d="M337.67,393.1a1.5,1.5,0,0,1,1.72,1,1.44,1.44,0,0,1-1,1.72,1.58,1.58,0,0,1-1.82-1.07,1.49,1.49,0,0,1,1.22-1.67" style="fill:#fff"></path></g><g style="opacity:0.6000000000000001"><path d="M345.32,398.36l-1.5-2.51-30.25,17.71s-1.09,1.4-.38,2.32Z" style="fill:#fff"></path></g><path d="M324.36,397.6c.09.16.91-.2,2-.12s1.82.52,1.93.38-.62-.92-1.89-1S324.25,397.48,324.36,397.6Z" style="fill:#263238"></path><path d="M321.75,400.83c.05.18.87.07,1.77.45s1.43,1,1.58.89-.23-1-1.35-1.47S321.67,400.68,321.75,400.83Z" style="fill:#263238"></path><path d="M322,405.91c.16,0,0-1-.92-1.59s-1.79-.58-1.78-.41.71.38,1.41.91S321.87,406,322,405.91Z" style="fill:#263238"></path><path d="M339.84,300.62s-8.65,28.74-9,35.42,4.61,79.66,4.61,79.66l2.13,6.08,10.74-2s10.3-42.08,10-57.75c-.31-15.34-1.78-21.58-.65-23,2.64-3.32,23.83-33.25,23.83-33.25s-24.92-3.61-32.68-5.78S339.84,300.62,339.84,300.62Z" style="fill:#ffbe9d"></path><path d="M339.84,300.62a1.51,1.51,0,0,1,.48-.58,4.37,4.37,0,0,1,2-.82,11.82,11.82,0,0,1,3.59.06c1.41.2,3,.66,4.77,1.09,7.19,1.61,17.74,3.3,30.82,5.23l.3,0-.18.24c-3.9,5.52-8.21,11.59-12.84,18.13l-7.23,10.11-3.82,5.23a4.29,4.29,0,0,0-.26,1.52q0,.81,0,1.65c0,1.11.14,2.23.22,3.35.35,4.51.64,9.15.77,13.9a84.2,84.2,0,0,1-.89,14.52c-1.32,9.79-3.3,19.84-5.51,30.09q-1.69,7.85-3.52,15.45l0,.16-.16,0-10.74,2-.22,0-.07-.2-2.13-6.09v-.06c-1.11-16.64-2.1-32.22-2.94-46.23-.39-7-.76-13.62-1.1-19.78q-.24-4.62-.41-8.9c0-1.42-.1-2.81-.08-4.18a24.21,24.21,0,0,1,.47-4c1-5.11,2.23-9.62,3.28-13.56s2-7.31,2.83-10l1.86-6.26c.22-.71.39-1.24.51-1.62s.18-.54.18-.54,0,.19-.14.55l-.46,1.63-1.78,6.29c-.77,2.75-1.71,6.12-2.75,10.06s-2.22,8.47-3.2,13.56a21.89,21.89,0,0,0-.45,3.93c0,1.35.05,2.74.09,4.16.12,2.84.27,5.81.43,8.89.37,6.16.75,12.77,1.16,19.77.91,14,1.92,29.59,3,46.22v-.07l2.13,6.09-.29-.17,10.74-2-.2.19c1.21-5,2.38-10.2,3.52-15.43,2.2-10.24,4.18-20.28,5.51-30a85.33,85.33,0,0,0,.9-14.44c-.13-4.73-.42-9.36-.76-13.87-.08-1.13-.16-2.25-.21-3.37,0-.56,0-1.12,0-1.69a4.54,4.54,0,0,1,.32-1.71l3.86-5.29,7.26-10.09,12.89-18.09.12.29c-13.09-2-23.63-3.73-30.81-5.4-1.8-.44-3.36-.91-4.76-1.13a11.66,11.66,0,0,0-3.54-.1,4.44,4.44,0,0,0-2,.75A1.82,1.82,0,0,0,339.84,300.62Z" style="fill:#eb996e"></path><path d="M357.69,339a23.71,23.71,0,0,1-2.87,4,23.4,23.4,0,0,1-3.28,3.7,24.25,24.25,0,0,1,2.87-4A23,23,0,0,1,357.69,339Z" style="fill:#eb996e"></path><path d="M331.64,326.59a62.66,62.66,0,0,1-2.08-11.1,60.35,60.35,0,0,1,2.08,11.1Z" style="fill:#eb996e"></path><path d="M381.46,252.8a15.6,15.6,0,0,1-1.88.5c-1.22.29-3,.76-5.11,1.41-4.3,1.27-10.07,3.53-16.65,5.45a60.39,60.39,0,0,1-9.48,1.95,37.13,37.13,0,0,1-7.91.1,26.74,26.74,0,0,1-5.23-1c-.6-.17-1.05-.37-1.36-.48s-.47-.19-.46-.21.67.17,1.88.49a28.94,28.94,0,0,0,5.2.86,38.34,38.34,0,0,0,7.82-.21,63.15,63.15,0,0,0,9.39-2c6.55-1.91,12.36-4.12,16.69-5.3,2.17-.61,3.94-1,5.17-1.26.62-.13,1.1-.2,1.43-.25A1.71,1.71,0,0,1,381.46,252.8Z" style="fill:#fff"></path><g style="opacity:0.30000000000000004"><path d="M332.45,258.61c6.39,3,13.79,1.71,20.67.36-.15,1.31-.31,2.62-.46,3.92,8.74-4.61,18.2-9.73,29.11-13l-3.19-3.07Z"></path></g><g style="opacity:0.30000000000000004"><path d="M375.79,209.88a7.4,7.4,0,0,0-.63,3.21c-.51,9.37.47,13.13,1.39,19.35a3.51,3.51,0,0,0,.21,1.35c.5.81-.34.12.31-.57a4.53,4.53,0,0,0,.94-2.65,191,191,0,0,0,.91-22.82C377.75,208.46,376.32,208.92,375.79,209.88Z"></path></g><path d="M394.7,328.51c-4.6,5.33-17.26-1.18-19.24-6.23-1.33-3.39-3.17-7.46-6.73-6.69-3.25.69-6.38,2.77-9.62,2-4.86-1.1-7.91-9.59-12.85-10.21-8.07-1-6.58,8.56-12.42,7.5-3.19-.58-8.93-8.4-11.15-10.77s-4.37-5-7.3-6.37-8.88,1.37-8.88,1.37c3.85-9,16.78-22.19,16.78-22.19l67-14.65c11,15.09,9.42,30.4,2,49.23l-.44,2s-3.23,8-1.26,9.58C394.17,326,394.7,328.51,394.7,328.51Z" style="fill:#E8505B"></path><path d="M375,177.84s9.62-1.34,15.21,5,16.2,17.23,16.2,17.23a6.83,6.83,0,0,0-5.7,2c-2.29,2.54-4.8,6.19-7.53,6.19s-3.66-1.59-7.88-1.94a12.79,12.79,0,0,0-8.21,2.29C375.76,209.46,375,177.84,375,177.84Z" style="fill:#E8505B"></path><path d="M358.52,230.72a2.81,2.81,0,0,1-.91-.13,15.91,15.91,0,0,1-2.4-.73,20.83,20.83,0,0,1-3.35-1.64,23.65,23.65,0,0,1-3.63-2.77,24.29,24.29,0,0,1-3-3.47,20.61,20.61,0,0,1-1.83-3.25,14.87,14.87,0,0,1-.86-2.36,3.12,3.12,0,0,1-.19-.9c.09,0,.45,1.23,1.38,3.1a23.45,23.45,0,0,0,1.89,3.13,23.15,23.15,0,0,0,6.47,6.11,23,23,0,0,0,3.23,1.71C357.27,230.34,358.55,230.63,358.52,230.72Z" style="fill:#263238"></path><path d="M406.43,200.12a16.18,16.18,0,0,0-2,.21,7,7,0,0,0-2.16.92,10.84,10.84,0,0,0-2.33,2.1c-.78.88-1.5,2-2.49,3a6.72,6.72,0,0,1-4,2.13,6.55,6.55,0,0,1-2.47-.27c-.81-.28-1.54-.65-2.33-.92a12.16,12.16,0,0,0-5.07-.72,6.64,6.64,0,0,0-1.42.26h0a12.66,12.66,0,0,0-4.54,1.76,6.89,6.89,0,0,0-1.68,1.54,4.69,4.69,0,0,0-.56.93l0,.12,0,.06v0h0l-.48-.06v-.83c-.1-2.94-.34-5.58-.52-7.79s-.35-3.91-.46-5.22c0-.57-.08-1-.11-1.42a2.6,2.6,0,0,1,0-.49,1.48,1.48,0,0,1,.11.48c.05.38.12.84.2,1.41.17,1.22.39,3,.62,5.21s.51,4.84.64,7.81l0,.56v.28c-.94-.12-.26,0-.47-.07h0v0l0,0,0-.07.06-.15a5,5,0,0,1,.61-1,7.28,7.28,0,0,1,1.79-1.66,13.09,13.09,0,0,1,4.72-1.85h0a7.43,7.43,0,0,1,1.55-.29,12.58,12.58,0,0,1,5.29.76c.82.28,1.58.67,2.31.93a6.14,6.14,0,0,0,2.27.26,6.32,6.32,0,0,0,3.72-2c1-1,1.71-2,2.52-2.91a10.55,10.55,0,0,1,2.44-2.11,7,7,0,0,1,2.28-.87A5.42,5.42,0,0,1,406.43,200.12Z" style="fill:#263238"></path><path d="M340.46,295a1.37,1.37,0,0,1,.15-.45l.51-1.27,2-4.61c1.73-3.87,4-9.27,7.18-14.94a35.68,35.68,0,0,1,5.38-7.41,28.3,28.3,0,0,1,5.92-4.58l1.31-.76,1.2-.62c.75-.4,1.4-.71,1.95-.95l1.25-.55a1.53,1.53,0,0,1,.45-.16,1.84,1.84,0,0,1-.41.25l-1.2.64c-.53.27-1.17.61-1.9,1l-1.18.65-1.28.8a29,29,0,0,0-5.76,4.59,36.34,36.34,0,0,0-5.27,7.34c-3.15,5.62-5.49,11-7.31,14.83l-2.13,4.55-.61,1.22C340.56,294.88,340.48,295,340.46,295Z" style="fill:#263238"></path><path d="M351.67,270.09a19.15,19.15,0,0,1-2-.89c-1.23-.54-3-1.22-4.92-1.87a43.55,43.55,0,0,0-5.07-1.39c-1.32-.27-2.15-.31-2.15-.39a5.82,5.82,0,0,1,2.21,0,29,29,0,0,1,5.17,1.25,35.07,35.07,0,0,1,4.92,2A6.32,6.32,0,0,1,351.67,270.09Z" style="fill:#263238"></path><path d="M392.41,204a10,10,0,0,1-1.61-2,37,37,0,0,1-3.06-5.34,35.31,35.31,0,0,1-2.12-5.78,10,10,0,0,1-.49-2.5,15.3,15.3,0,0,1,.84,2.39,51.7,51.7,0,0,0,2.24,5.67,53.82,53.82,0,0,0,2.9,5.36A16.18,16.18,0,0,1,392.41,204Z" style="fill:#263238"></path><path d="M397.93,199.11a5.71,5.71,0,0,1-1.91-.59,17.33,17.33,0,0,1-4.13-2.52,17,17,0,0,1-3.26-3.57,5.5,5.5,0,0,1-.94-1.77,33.78,33.78,0,0,0,4.53,4.94A35,35,0,0,0,397.93,199.11Z" style="fill:#263238"></path><path d="M342.57,197c0,.15-3.23,0-7.19.2s-7.17.51-7.19.36a7.57,7.57,0,0,1,2.08-.43,50.08,50.08,0,0,1,5.09-.45,48.82,48.82,0,0,1,5.11.05A7.45,7.45,0,0,1,342.57,197Z" style="fill:#fff"></path><path d="M372.39,196.06a25.5,25.5,0,0,1-3.16-.19c-2-.14-4.64-.31-7.62-.37s-5.67,0-7.63.09a24.52,24.52,0,0,1-3.16.07,15.82,15.82,0,0,1,3.14-.43,75.23,75.23,0,0,1,15.3.28A15.46,15.46,0,0,1,372.39,196.06Z" style="fill:#fff"></path><path d="M345.12,221.63a9,9,0,0,1-2.24.34c-1.4.14-3.33.27-5.47.31s-4.07,0-5.47-.08a8.87,8.87,0,0,1-2.25-.26,10.52,10.52,0,0,1,2.26-.11l5.45-.07,5.45-.15A9.53,9.53,0,0,1,345.12,221.63Z" style="fill:#fff"></path><path d="M375.56,222.5c0,.14-6.19.51-13.84.83s-13.86.45-13.87.31,6.19-.52,13.85-.83S375.56,222.36,375.56,222.5Z" style="fill:#fff"></path><path d="M342.62,288.05c-.07.06-1-.94-2.63-2.39a39.72,39.72,0,0,0-14.72-8.3c-2.08-.65-3.41-.92-3.4-1a3.61,3.61,0,0,1,1,.1,23.05,23.05,0,0,1,2.55.56,34.68,34.68,0,0,1,14.86,8.38,21.47,21.47,0,0,1,1.8,1.89A3.43,3.43,0,0,1,342.62,288.05Z" style="fill:#fff"></path><path d="M340.85,294.2a3.93,3.93,0,0,1,.51-.4l1.52-1.07c.68-.44,1.53-.93,2.51-1.53s2.14-1.19,3.46-1.77a50.48,50.48,0,0,1,9.53-3.34,52.74,52.74,0,0,1,12.27-1.48,50.13,50.13,0,0,1,12.26,1.51,20.93,20.93,0,0,1,9.08,4.41,11.9,11.9,0,0,1,3.6,5.81,9,9,0,0,1,.25,1.87,2.69,2.69,0,0,1,0,.65,15.85,15.85,0,0,0-.42-2.47,11.94,11.94,0,0,0-3.65-5.58,20.88,20.88,0,0,0-8.94-4.23,51.35,51.35,0,0,0-12.15-1.45,53.64,53.64,0,0,0-12.16,1.43,52.43,52.43,0,0,0-9.49,3.21c-1.32.55-2.45,1.19-3.48,1.69s-1.85,1-2.53,1.45l-1.57,1A2.46,2.46,0,0,1,340.85,294.2Z" style="fill:#fff"></path><g style="opacity:0.30000000000000004"><path d="M345.47,267.64a6,6,0,0,1,1.79,5.07,14.86,14.86,0,0,1-2.62,5.07A123.74,123.74,0,0,0,332,301.47c-.81,2-1.58,4.26-1,6.38s3.08,3.82,5,2.76a4.8,4.8,0,0,0,2.15-4.27c-.23-9.46,7.34-22.79,14.42-35.79C352.57,270.55,344.27,266.29,345.47,267.64Z"></path></g><g style="opacity:0.30000000000000004"><path d="M351.63,227.79c-4.17-2.58-6.31-5.81-8.48-10.36a13.54,13.54,0,0,0,6.73,13.44,14.59,14.59,0,0,0,15.63-.75A17.85,17.85,0,0,1,351.63,227.79Z"></path></g><path d="M393.11,185.68a26.93,26.93,0,0,1-2.85-.05,32.59,32.59,0,0,0-6.78.68,32.25,32.25,0,0,0-6.49,2.12c-1.6.72-2.54,1.26-2.59,1.19a10.53,10.53,0,0,1,2.43-1.53,26.83,26.83,0,0,1,6.54-2.29,26.09,26.09,0,0,1,6.91-.53A10.46,10.46,0,0,1,393.11,185.68Z" style="fill:#fff"></path><path d="M374.06,186.24a9.34,9.34,0,0,1,1.86-4.71,9.9,9.9,0,0,1,2.57-2.55c.79-.5,1.34-.68,1.37-.62a17.18,17.18,0,0,0-3.51,3.47A36.8,36.8,0,0,0,374.06,186.24Z" style="fill:#263238"></path><path d="M349.71,414.65s-10.43,6.2-14.71-.25l-1.49,2.84L326.2,437.7a2.82,2.82,0,0,0,1.31,3.49,2.7,2.7,0,0,0,2.91-.32c4.37-3.53,20.39-16.59,20.4-18.54l.36-5.14a2.63,2.63,0,0,0-1.47-2.54Z" style="fill:#E8505B"></path><g style="opacity:0.6000000000000001"><path d="M328,441.37l23-20.83-.1,1.13a3.12,3.12,0,0,1-1.2,2.39c-1.9,2.17-7.06,6.95-19.17,16.82a2.7,2.7,0,0,1-2.52.49Z" style="fill:#fff"></path></g><g style="opacity:0.6000000000000001"><path d="M348.14,417a1.66,1.66,0,0,0-.63,2.11,1.59,1.59,0,0,0,2.08.64,1.74,1.74,0,0,0,.66-2.23A1.64,1.64,0,0,0,348,417" style="fill:#fff"></path></g><path d="M335,430.32c-.16.06-.64-1.38-2.15-2.26a8.45,8.45,0,0,0-3-.84c0-.07.34-.24,1-.28a4.25,4.25,0,0,1,2.33.62,4.16,4.16,0,0,1,1.64,1.78C335.08,429.91,335.09,430.3,335,430.32Z" style="fill:#263238"></path><path d="M332.83,433.7c-.14.11-.91-.82-2.25-1.33a22.79,22.79,0,0,0-2.56-.56,3.06,3.06,0,0,1,2.78,0C332.32,432.41,333,433.65,332.83,433.7Z" style="fill:#263238"></path><path d="M338.92,426.08a27.34,27.34,0,0,0-3.33-2.3,25.73,25.73,0,0,0-3.85-1.25,6,6,0,0,1,4.1.72A6.07,6.07,0,0,1,338.92,426.08Z" style="fill:#263238"></path><path d="M339.9,419.75c-.08.15-1.49-.59-3.39-.82s-3.44.1-3.49-.07a5.25,5.25,0,0,1,3.56-.51C338.62,418.61,340,419.63,339.9,419.75Z" style="fill:#263238"></path><path d="M335.43,418.79a2.28,2.28,0,0,1,.23-1,7.12,7.12,0,0,1,1.46-2.33,3.13,3.13,0,0,1,1.67-1.08,1.11,1.11,0,0,1,1.13.56,1.81,1.81,0,0,1,.09,1.27,3.86,3.86,0,0,1-4.19,2.55,4.49,4.49,0,0,1-3.62-3.41,1.53,1.53,0,0,1,.27-1.26,1.07,1.07,0,0,1,1.23-.26,4,4,0,0,1,1.45,1.34,7.74,7.74,0,0,1,1.21,2.47,2.28,2.28,0,0,1,.15,1,12.58,12.58,0,0,0-1.68-3.21,3.53,3.53,0,0,0-1.3-1.13.56.56,0,0,0-.67.13,1.09,1.09,0,0,0-.13.84,4,4,0,0,0,3.17,2.92,3.34,3.34,0,0,0,3.59-2.11,1.28,1.28,0,0,0,0-.89.58.58,0,0,0-.61-.32,2.74,2.74,0,0,0-1.43.89A10.08,10.08,0,0,0,335.43,418.79Z" style="fill:#263238"></path><path d="M376.71,209.25l-.83,23.12L334.23,244.1,337.61,258l46.81-8.46c3.95-.71,7.75-3.21,8.55-7,2.07-9.74,2.46-17.06,3.3-35.2a6.12,6.12,0,0,1-5.54.78C387.71,206.94,382.71,204.59,376.71,209.25Z" style="fill:#ffbe9d"></path><path d="M337.61,244.92l-3.38-.82-5.79-11.77-7.36-10.49s-1.84.74-.64,3.22,2.48,5.24,2.48,5.24l-7.45-4.23a2.76,2.76,0,0,0,.37,3.77,3.59,3.59,0,0,0,.37,3.13c1,1.47,8.36,9.11,8.36,9.11l-7.9-4.14s-1.29,1.93,1,3.86,6.53,6.16,6.53,6.16,3.68,7.63,4.5,9.2,4.51,1.65,5.8,1.38,3.61-.69,3.61-.69Z" style="fill:#ffbe9d"></path><path d="M329.51,242.94c-.08,0-.54-.95-1.52-2.4a35.44,35.44,0,0,0-4.44-5.15,56.57,56.57,0,0,0-5.37-4.18,9.27,9.27,0,0,1-2.11-1.93c.05-.05.87.65,2.32,1.63a40.59,40.59,0,0,1,5.53,4.11,28.55,28.55,0,0,1,4.38,5.32A8.81,8.81,0,0,1,329.51,242.94Z" style="fill:#eb996e"></path><path d="M329.05,236c-.11.07-1.41-1.55-3.38-3.23a46.57,46.57,0,0,1-3.53-3.08,14,14,0,0,1,3.88,2.69C328,234.13,329.19,236,329.05,236Z" style="fill:#eb996e"></path><path d="M449.56,169.14a3.66,3.66,0,0,0-1.32-1.88,29.35,29.35,0,0,1-6.29-8.72c-1.89-4-2.85-8.45-4.79-12.46a27.76,27.76,0,0,0-32.83-14.52c-4.56,1.35-9.18,3.88-13.77,2.69-4-1.05-6.73-4.65-9.76-7.48-6.46-6-19.46-11.19-27.05-7.78l2.67-.32c-14.73,5.61-12.58,24.16-5.76,35.42,4.82,8,6.51,16.07,15.64,17.91,20.69,4.18,21.5,7.77,34.27,10.3,10.61,2.11,33.89,1.89,42.75-7.64l-3.42-4.58c1.85-.44,3.64.8,5.47,1.34S449.89,171,449.56,169.14Z" style="fill:#263238"></path><path d="M451.8,156.26s-.07,0-.22.07-.37.1-.66.16a9.48,9.48,0,0,1-2.64,0,14.46,14.46,0,0,1-8.41-4.55,30.93,30.93,0,0,1-4-5.36c-1.26-2-2.46-4.31-3.85-6.6a29.4,29.4,0,0,0-5.17-6.55,14.85,14.85,0,0,0-3.63-2.45,10.12,10.12,0,0,0-2.11-.73,12.68,12.68,0,0,0-2.23-.39,24.52,24.52,0,0,0-8.81,1.4c-2.78.88-5.44,1.87-8.06,2.56a21.42,21.42,0,0,1-7.64.8,13.85,13.85,0,0,1-6.23-2.46,47.62,47.62,0,0,1-4.33-3.4c-1.24-1-2.31-1.93-3.21-2.62a25,25,0,0,0-2.17-1.46l-.58-.34a.68.68,0,0,1-.2-.14s.08,0,.22.09l.62.3a19.69,19.69,0,0,1,2.23,1.39c.93.66,2,1.53,3.27,2.56a52.87,52.87,0,0,0,4.36,3.32,13.48,13.48,0,0,0,6.06,2.33,21.12,21.12,0,0,0,7.48-.83c2.58-.7,5.23-1.69,8-2.59a24.78,24.78,0,0,1,9-1.43,13,13,0,0,1,2.32.41,10.41,10.41,0,0,1,2.2.76,15.29,15.29,0,0,1,3.75,2.54,29.63,29.63,0,0,1,5.24,6.68c1.39,2.32,2.57,4.59,3.81,6.63a31.28,31.28,0,0,0,3.91,5.33,14.51,14.51,0,0,0,8.17,4.6A11.56,11.56,0,0,0,451.8,156.26Z" style="fill:#263238"></path><path d="M449.41,168.74a4,4,0,0,1-.67-.32c-.43-.23-1.05-.58-1.85-1-1.59-.94-3.83-2.41-6.53-4.33s-5.85-4.26-9.53-6.6A43.79,43.79,0,0,0,418,150.69a25.94,25.94,0,0,0-7.22-.72,54.65,54.65,0,0,0-6.77.85c-2.15.38-4.2.74-6.14.94a26,26,0,0,1-5.43,0,15.37,15.37,0,0,1-7.38-2.57,8.47,8.47,0,0,1-2.05-2,18.45,18.45,0,0,0,2.17,1.84,15.51,15.51,0,0,0,7.29,2.37c3.28.36,7.17-.28,11.46-1.08a54.61,54.61,0,0,1,6.82-.89,25.86,25.86,0,0,1,7.37.73,43.21,43.21,0,0,1,13,5.85c3.69,2.37,6.82,4.76,9.49,6.7s4.86,3.46,6.42,4.46l1.8,1.13A3.18,3.18,0,0,1,449.41,168.74Z" style="fill:#455a64"></path><path d="M403.34,162.43a3.63,3.63,0,0,1-1,.09,22.28,22.28,0,0,1-2.83-.12,30.63,30.63,0,0,1-9.05-2.32,31,31,0,0,1-7.95-4.92,22.42,22.42,0,0,1-2-2,4.06,4.06,0,0,1-.66-.81c.07-.07,1.09,1,2.94,2.49a34,34,0,0,0,16.8,7.16C401.86,162.35,403.34,162.34,403.34,162.43Z" style="fill:#455a64"></path><path d="M442,156.58a5.58,5.58,0,0,1-.66-.24,15.05,15.05,0,0,1-1.83-.87,27,27,0,0,1-5.75-4.71c-2.22-2.22-4.56-5.16-7.71-7.81a23.7,23.7,0,0,0-5.44-3.38,25.4,25.4,0,0,0-6.61-1.91,24.78,24.78,0,0,0-6.88,0,26.49,26.49,0,0,0-6.19,1.71c-1.93.75-3.74,1.54-5.5,2.12a17.54,17.54,0,0,1-5.06,1,12.11,12.11,0,0,1-4.22-.61,8.5,8.5,0,0,1-2.81-1.57,6.22,6.22,0,0,1-1.32-1.55,3.21,3.21,0,0,1-.31-.63,8.32,8.32,0,0,0,1.76,2,8.53,8.53,0,0,0,2.77,1.45,11.9,11.9,0,0,0,4.11.52,17.32,17.32,0,0,0,4.94-1c1.74-.59,3.53-1.39,5.46-2.16a26.43,26.43,0,0,1,6.3-1.76,24.71,24.71,0,0,1,7,0,25.74,25.74,0,0,1,6.74,1.95,23.81,23.81,0,0,1,5.54,3.49c3.19,2.71,5.49,5.68,7.66,7.92a29.1,29.1,0,0,0,5.59,4.79C441.07,156.19,442,156.52,442,156.58Z" style="fill:#455a64"></path><path d="M441,176.05l-.18.06a4.76,4.76,0,0,1-.55.11,7.53,7.53,0,0,1-2.15-.14c-.92-.17-2-.56-3.26-.87-.64-.15-1.31-.35-2.05-.46l-1.12-.2-1.2-.15a57.69,57.69,0,0,0-11.57.09c-4.36.36-9.15,1-14.23,1a55.14,55.14,0,0,1-25-6.12,51.77,51.77,0,0,1-6.7-4.1c-.76-.54-1.3-1-1.69-1.31a4.09,4.09,0,0,1-.56-.48,3,3,0,0,1,.62.4c.41.27,1,.72,1.75,1.22a58.44,58.44,0,0,0,6.75,4A56.49,56.49,0,0,0,404.65,175c5,0,9.82-.65,14.19-1a54.88,54.88,0,0,1,11.65,0l1.21.16,1.14.23a20.53,20.53,0,0,1,2.05.5c1.28.34,2.34.75,3.24.95A7.67,7.67,0,0,0,441,176.05Z" style="fill:#455a64"></path><path d="M344.52,122.75a18,18,0,0,1,13.7-5.08c7,.06,14.44,2.6,19.25,7.74,4.41,4.73,5.76,9.16,5.76,16.53a18.67,18.67,0,0,1-3.46,9.12c-1.48,1.74-2.68,3-4.86,3.7s-2.88-.13-4.3-1.92a10.26,10.26,0,0,1-1.56-3.85c-1.47-5.71-3.29-11.43-6.61-16.3s-8.35-8.83-14.18-9.7" style="fill:#455a64"></path><path d="M339.59,134.65a14,14,0,0,1,4.93-11.9,18.39,18.39,0,0,1,9.23-3.76,19.85,19.85,0,0,1,13.09,2.28c3.85,2.36,6.62,6.71,6.4,11.22-.1,2-.79,4.1-.43,6.12a4.57,4.57,0,0,1,.13,2.63,2.13,2.13,0,0,1-2,1.1,4.75,4.75,0,0,1-2.27-.83,25.53,25.53,0,0,1-5.95-5.79" style="fill:#263238"></path><path d="M365.18,179.7l8.43-42.41a3.73,3.73,0,0,0-2.72-4.24l-18.82-8c-6.17-1.62-11.52,5.46-12.88,11.69-1.51,6.92-3.08,15.43-3.05,20.77.06,10.74,7.89,13.31,7.89,13.31s-.94,6-.94,6c-1.7,6.52-2,17.24,2.31,23.49Z" style="fill:#ffbe9d"></path><path d="M339.54,144.05c.12.21,1.32-.24,2.73.16s2.24,1.4,2.44,1.27,0-.41-.34-.87a3.71,3.71,0,0,0-1.9-1.22,3.52,3.52,0,0,0-2.22.08C339.72,143.68,339.49,144,339.54,144.05Z" style="fill:#263238"></path><path d="M354.14,146.54c.14.2,1.28-.39,2.72-.17s2.4,1.11,2.58,1,0-.41-.44-.82a3.76,3.76,0,0,0-2-1,3.63,3.63,0,0,0-2.2.35C354.27,146.16,354.07,146.45,354.14,146.54Z" style="fill:#263238"></path><path d="M347.65,153.9a9.45,9.45,0,0,0-2.28-.79c-.36-.09-.7-.22-.73-.48a2,2,0,0,1,.42-1.06l1.52-2.64c2.13-3.78,3.74-6.9,3.58-7s-2,2.91-4.13,6.68l-1.48,2.67a2.16,2.16,0,0,0-.42,1.42,1,1,0,0,0,.53.64,2.91,2.91,0,0,0,.61.18A10,10,0,0,0,347.65,153.9Z" style="fill:#263238"></path><path d="M344,170.87a27,27,0,0,0,14.62-1.6s-4.64,6.72-15,4.13Z" style="fill:#eb996e"></path><path d="M347.73,157.48a2.63,2.63,0,0,1,2.49-.61,2.4,2.4,0,0,1,1.51,1.13,1.53,1.53,0,0,1-.15,1.74,1.76,1.76,0,0,1-2,.19,5.43,5.43,0,0,1-1.68-1.38,1.64,1.64,0,0,1-.35-.49.5.5,0,0,1,.08-.54" style="fill:#eb996e"></path><path d="M351.76,155.55c-.23-.05-.48,1.52-2,2.43s-3.16.48-3.21.7.33.36,1,.49a3.93,3.93,0,0,0,2.66-.5,3.38,3.38,0,0,0,1.57-2C352,156,351.87,155.56,351.76,155.55Z" style="fill:#263238"></path><path d="M355,139.56c.08.41,1.55.45,3.22.91s3,1.14,3.25.82c.13-.15-.06-.56-.55-1a5.51,5.51,0,0,0-2.31-1.23,5.66,5.66,0,0,0-2.62-.1C355.31,139.1,355,139.36,355,139.56Z" style="fill:#263238"></path><path d="M341.76,135.26c.2.36,1.25.18,2.45.34s2.18.56,2.47.26c.13-.16,0-.51-.38-.89a3.59,3.59,0,0,0-4-.48C341.86,134.76,341.67,135.08,341.76,135.26Z" style="fill:#263238"></path><path d="M368,154.41c.12-.78,1.31-2.49,2.1-2.49,2.1,0,5.79.73,5,6-1,7.15-8,4.62-8,4.42S367.53,157.1,368,154.41Z" style="fill:#ffbe9d"></path><path d="M369.66,159.92s.11.1.31.23a1.25,1.25,0,0,0,.93.15,3.1,3.1,0,0,0,1.83-2.55,4.17,4.17,0,0,0-.09-1.84,1.47,1.47,0,0,0-.8-1.1.64.64,0,0,0-.78.24c-.13.18-.1.33-.14.34s-.14-.14,0-.43a.82.82,0,0,1,.35-.41,1,1,0,0,1,.72-.08,1.8,1.8,0,0,1,1.14,1.3,4.4,4.4,0,0,1,.14,2.06c-.26,1.44-1.2,2.68-2.28,2.83a1.37,1.37,0,0,1-1.11-.36C369.65,160.09,369.63,159.92,369.66,159.92Z" style="fill:#eb996e"></path><path d="M377,136.28c-.88-6.37-8.19-16.22-14.58-16.87l-11.14,4.31a9.91,9.91,0,0,0,5.32,8.59c1.69.85,3.82,1.37,4.61,3.08s-.21,3.93.52,5.72c1,2.48,4.85,3,5.48,5.63.27,1.14-.18,2.36.11,3.5a3.34,3.34,0,0,0,3.67,2.2,5.36,5.36,0,0,0,3.66-2.66,14.34,14.34,0,0,0,1.54-4.39A25.57,25.57,0,0,0,377,136.28Z" style="fill:#263238"></path><path d="M359.83,149.78a12.28,12.28,0,0,0-5.07-.54,1.91,1.91,0,0,0-1.7.89,1.39,1.39,0,0,0,.62,1.57,4,4,0,0,0,1.73.53l4.66.67a2,2,0,0,0,1.46-.17,1.35,1.35,0,0,0,0-1.92,3.34,3.34,0,0,0-1.69-1" style="fill:#ffad8d"></path><path d="M344,147.52a2,2,0,0,0-1-.74,5.84,5.84,0,0,0-2.4-.64,2.7,2.7,0,0,0-2.2,1v0a1.56,1.56,0,0,0,1.11,2.4,12.56,12.56,0,0,0,2.21.14,3,3,0,0,0,1.79-.52A1.38,1.38,0,0,0,344,147.52Z" style="fill:#ffad8d"></path><path d="M357.19,118.64a13.64,13.64,0,0,0-3.83,2.47A13.79,13.79,0,0,0,351,125a2.7,2.7,0,0,1,.24-1.38,7.87,7.87,0,0,1,4.62-4.71A2.7,2.7,0,0,1,357.19,118.64Z" style="fill:#455a64"></path><path d="M376.19,145.46s-.11-.07-.28-.25a7.38,7.38,0,0,1-.71-.8,15.9,15.9,0,0,1-2-3.4c-.71-1.52-1.35-3.4-2.1-5.45a23.28,23.28,0,0,0-3.18-6.26,12.34,12.34,0,0,0-2.59-2.52,13.92,13.92,0,0,0-2.92-1.68,14.83,14.83,0,0,0-5.57-1.23,18.57,18.57,0,0,0-5.25.76s.11-.07.33-.17a7.69,7.69,0,0,1,1-.38,13.07,13.07,0,0,1,3.91-.58,14.82,14.82,0,0,1,5.75,1.16,14.05,14.05,0,0,1,3.05,1.71,12.76,12.76,0,0,1,2.69,2.61,22.48,22.48,0,0,1,3.22,6.42c.73,2.07,1.33,3.95,2,5.46A22.39,22.39,0,0,0,376.19,145.46Z" style="fill:#455a64"></path><path d="M373.7,144.05a5.43,5.43,0,1,1-7.68-.14A5.43,5.43,0,0,1,373.7,144.05Z" style="fill:#E8505B"></path><g style="opacity:0.30000000000000004"><path d="M373.08,152.17a10.37,10.37,0,0,1-1-1.25,8.9,8.9,0,0,0-2.75-2.47,5,5,0,0,0-3.56-.47,7.94,7.94,0,0,0-1.41.62s.08-.13.29-.31a3.61,3.61,0,0,1,1-.56,5,5,0,0,1,3.81.4,8,8,0,0,1,2.79,2.64A5.24,5.24,0,0,1,373.08,152.17Z"></path></g><g style="opacity:0.30000000000000004"><path d="M372.18,143.1a6.14,6.14,0,0,0-1.86,5.84A1.89,1.89,0,0,1,370,148a4.81,4.81,0,0,1,.15-2.36,4.75,4.75,0,0,1,1.24-2C371.82,143.23,372.16,143.06,372.18,143.1Z"></path></g><g style="opacity:0.30000000000000004"><path d="M370.58,145c0,.05-.33-.2-.88-.34a2.45,2.45,0,0,0-3.15,2.17c-.06.57.07.93,0,.95a1.35,1.35,0,0,1-.26-1,2.54,2.54,0,0,1,3.48-2.4C370.37,144.62,370.61,145,370.58,145Z"></path></g><g style="opacity:0.30000000000000004"><path d="M370.08,146.73c-.07.08-.63-.42-1.48-.73s-1.6-.32-1.61-.43a2.16,2.16,0,0,1,1.73.09C369.66,146,370.16,146.68,370.08,146.73Z"></path></g><g style="opacity:0.30000000000000004"><path d="M368.65,145.82c.08.07-.17.46-.23,1s0,1-.1,1-.31-.42-.26-1.06S368.59,145.76,368.65,145.82Z"></path></g></g><g id="freepik--Floor--inject-21"><path d="M475.76,473.28c0,.15-102,.26-227.75.26s-227.77-.11-227.77-.26S122.2,473,248,473,475.76,473.14,475.76,473.28Z" style="fill:#263238"></path></g><g id="freepik--Hearts--inject-21"><path d="M331.08,90.94a4.18,4.18,0,0,0-.68-2.35A4,4,0,0,0,328.58,87a3.18,3.18,0,0,0-3.69,1,3.17,3.17,0,0,0-3.13-2,3.82,3.82,0,0,0-2.21.92,4.06,4.06,0,0,0-1.38,2,5,5,0,0,0,.12,3.11,7,7,0,0,0,2,2.62c1.41,1.19,3.27,2.69,3.27,2.69s1.94-1,3.65-1.7A7,7,0,0,0,330,93.85,5,5,0,0,0,331.08,90.94Z" style="fill:#E8505B"></path><path d="M335.37,111.92a6.77,6.77,0,0,0-1.13-3.89,6.44,6.44,0,0,0-3-2.58,5.34,5.34,0,0,0-4.17.14,5.27,5.27,0,0,0-1.94,1.6,5.25,5.25,0,0,0-1.27-1.91,5.34,5.34,0,0,0-3.91-1.44,6.49,6.49,0,0,0-3.66,1.52A6.68,6.68,0,0,0,314,108.7a8.21,8.21,0,0,0,.21,5.14,11.45,11.45,0,0,0,3.35,4.34c2.33,2,5.41,4.46,5.41,4.46s3.22-1.69,6-2.83a11.71,11.71,0,0,0,4.54-3.06A8.23,8.23,0,0,0,335.37,111.92Z" style="fill:#E8505B"></path><path d="M345.34,101.51a2.28,2.28,0,0,0-.38-1.31,2.19,2.19,0,0,0-1-.87,1.79,1.79,0,0,0-1.4,0,1.7,1.7,0,0,0-.65.54,1.89,1.89,0,0,0-.43-.65,1.77,1.77,0,0,0-1.31-.48,2.25,2.25,0,0,0-1.24.51,2.36,2.36,0,0,0-.77,1.12,2.87,2.87,0,0,0,.07,1.74,4,4,0,0,0,1.13,1.45c.79.67,1.82,1.5,1.82,1.5s1.09-.56,2-1a4,4,0,0,0,1.53-1A2.71,2.71,0,0,0,345.34,101.51Z" style="fill:#E8505B"></path></g></svg>